<svg width="24" height="23" viewBox="0 0 24 23" fill="none" xmlns="http://www.w3.org/2000/svg">
<g clip-path="url(#clip0_16_1437)">
<path d="M12.2691 22.9052C5.95701 22.9052 0.816528 17.7709 0.816528 11.4526C0.816528 5.13435 5.95701 0 12.2691 0C18.5813 0 23.7217 5.14048 23.7217 11.4526C23.7217 17.7647 18.5813 22.9052 12.2691 22.9052ZM12.2691 1.22685C6.63178 1.22685 2.04337 5.81525 2.04337 11.4526C2.04337 17.09 6.63178 21.6784 12.2691 21.6784C17.9065 21.6784 22.4949 17.09 22.4949 11.4526C22.4949 5.81525 17.9065 1.22685 12.2691 1.22685Z" fill="#DBEF60"/>
<path d="M13.6677 10.5447H10.8276V17.3599H13.6677V10.5447Z" fill="#DBEF60"/>
<path d="M13.6002 5.75391H10.8276V8.15239H13.6002V5.75391Z" fill="#DBEF60"/>
</g>
<defs>
<clipPath id="clip0_16_1437">
<rect width="22.9052" height="22.9052" fill="white" transform="translate(0.816528)"/>
</clipPath>
</defs>
</svg>
