<svg width="19" height="19" viewBox="0 0 19 19" fill="none" xmlns="http://www.w3.org/2000/svg">
<g clip-path="url(#clip0_17_2112)">
<path d="M9.52 0C4.31 0 0 4.19 0 9.28C0 14.56 4.19 18.83 9.38 18.84C14.53 18.84 18.83 14.61 18.84 9.5C18.85 4.29 14.65 0 9.52 0ZM15.96 6.11C13.07 9.09 10.18 12.06 7.29 15.04C7.21 15.12 7.18 15.07 7.13 15.02C5.71 13.55 4.28 12.09 2.86 10.62C2.84 10.6 2.84 10.51 2.86 10.49C3.56 9.78 4.26 9.07 4.96 8.36C5.04 8.28 5.08 8.33 5.13 8.38C5.8 9.07 6.47 9.77 7.14 10.46C7.19 10.52 7.23 10.54 7.3 10.46C9.45 8.24 11.6 6.02 13.76 3.81C13.78 3.79 13.87 3.78 13.89 3.8C14.59 4.52 15.28 5.24 15.98 5.96C16 5.98 16.01 6 16.03 6.03C16.01 6.06 15.99 6.08 15.97 6.11H15.96Z" fill="#76ED97"/>
</g>
<defs>
<clipPath id="clip0_17_2112">
<rect width="18.84" height="18.84" fill="white"/>
</clipPath>
</defs>
</svg>
