<svg width="55" height="55" viewBox="0 0 55 55" fill="none" xmlns="http://www.w3.org/2000/svg">
<g clip-path="url(#clip0_15_1379)">
<path d="M27.4 52.8C41.428 52.8 52.8 41.428 52.8 27.4C52.8 13.372 41.428 2 27.4 2C13.372 2 2 13.372 2 27.4C2 41.428 13.372 52.8 27.4 52.8Z" stroke="#79B2AF" stroke-width="4" stroke-miterlimit="10"/>
<path d="M16.18 19.32V18.62C16.23 18.21 16.26 17.79 16.52 17.43C16.89 16.91 17.33 16.48 17.95 16.3C18.45 16.15 18.99 16.19 19.51 16.22C20.19 16.26 20.67 16.66 21.12 17.1C23.1 19.06 25.06 21.04 27.03 23.01C27.07 23.05 27.1 23.08 27.14 23.12C27.35 23.33 27.41 23.33 27.62 23.12C28.67 22.07 29.71 21.03 30.76 19.98C31.72 19.02 32.67 18.06 33.64 17.11C34 16.75 34.38 16.41 34.89 16.3C35.38 16.19 35.88 16.18 36.38 16.25C37.47 16.38 38.14 17.06 38.5 18.03C38.68 18.51 38.61 19.05 38.58 19.58C38.54 20.27 38.13 20.76 37.68 21.21C35.75 23.15 33.82 25.08 31.88 27.01C31.82 27.07 31.77 27.12 31.71 27.18C31.47 27.43 31.47 27.47 31.71 27.71C33.69 29.69 35.67 31.67 37.65 33.65C37.86 33.86 38.06 34.09 38.23 34.33C38.62 34.88 38.61 35.51 38.6 36.14C38.6 37.18 38.04 37.88 37.2 38.4C36.88 38.6 36.52 38.58 36.18 38.64H35.48C35.02 38.59 34.56 38.54 34.18 38.22C33.98 38.06 33.78 37.9 33.6 37.72C31.63 35.75 29.65 33.77 27.68 31.8C27.39 31.51 27.38 31.51 27.09 31.8C25.13 33.76 23.16 35.73 21.2 37.69C20.98 37.91 20.75 38.1 20.5 38.29C20.14 38.57 19.71 38.59 19.29 38.64H18.59C18.5 38.59 18.4 38.61 18.32 38.6C17.72 38.58 17.29 38.26 16.89 37.86C16.78 37.75 16.68 37.64 16.59 37.51C16.32 37.16 16.23 36.76 16.21 36.33C16.21 36.28 16.23 36.23 16.19 36.18V35.57C16.24 35.49 16.21 35.4 16.22 35.31C16.24 34.62 16.63 34.13 17.08 33.68C19.03 31.72 20.99 29.76 22.95 27.8C23.2033 27.5467 23.2033 27.3 22.95 27.06C21.03 25.14 19.12 23.23 17.2 21.31C17.01 21.12 16.83 20.92 16.66 20.71C16.36 20.35 16.22 19.93 16.21 19.46C16.21 19.42 16.22 19.37 16.19 19.34L16.18 19.32Z" fill="#79B2AF"/>
</g>
<defs>
<clipPath id="clip0_15_1379">
<rect width="54.79" height="54.79" fill="white"/>
</clipPath>
</defs>
</svg>
