<svg width="429" height="280" viewBox="0 0 429 280" fill="none" xmlns="http://www.w3.org/2000/svg">
<rect x="0.75" y="0.75" width="427.5" height="278.5" rx="13.25" fill="white" fill-opacity="0.3" stroke="#76ED97" stroke-width="1.5"/>
<g clip-path="url(#clip0_87_4468)">
<path d="M214.57 159.14C191.65 159.14 173 140.49 173 117.57C173 94.65 191.65 76 214.57 76C237.49 76 256.14 94.65 256.14 117.57C256.14 140.49 237.49 159.14 214.57 159.14ZM214.57 83C195.51 83 180 98.51 180 117.57C180 136.63 195.51 152.14 214.57 152.14C233.63 152.14 249.14 136.63 249.14 117.57C249.14 98.51 233.63 83 214.57 83Z" fill="#76ED97"/>
<path d="M233.4 112.73V121.89H219.11V136.18H209.95V121.89H195.75V112.73H209.95V98.53H219.11V112.73H233.4Z" fill="#76ED97"/>
</g>
<path d="M131.002 195.216C127.51 195.216 124.702 192.3 124.702 188.772C124.702 185.28 127.51 182.382 131.002 182.382C133.18 182.382 135.088 183.48 136.222 185.136L134.026 186.666C133.378 185.658 132.424 185.046 131.128 185.046C129.04 185.046 127.546 186.72 127.546 188.772C127.546 190.824 128.986 192.552 131.11 192.552C132.424 192.552 133.378 191.94 134.026 190.932L136.222 192.462C135.088 194.118 133.18 195.216 131.002 195.216ZM142.831 186.378C145.063 186.378 146.161 187.908 146.161 190.482V195H143.497V190.644C143.497 189.366 142.705 188.844 142.039 188.844C141.319 188.844 140.419 189.24 140.419 190.644V195H137.755V182.022H140.419V187.944C140.725 186.864 142.075 186.378 142.831 186.378ZM152.352 195.216C149.958 195.216 147.798 193.452 147.798 190.806C147.798 188.142 149.958 186.378 152.352 186.378C154.746 186.378 156.924 188.142 156.924 190.806C156.924 193.452 154.746 195.216 152.352 195.216ZM152.352 192.75C153.378 192.75 154.206 191.958 154.206 190.806C154.206 189.654 153.378 188.844 152.352 188.844C151.326 188.844 150.498 189.654 150.498 190.806C150.498 191.958 151.326 192.75 152.352 192.75ZM162.723 195.216C160.329 195.216 158.169 193.452 158.169 190.806C158.169 188.142 160.329 186.378 162.723 186.378C165.117 186.378 167.295 188.142 167.295 190.806C167.295 193.452 165.117 195.216 162.723 195.216ZM162.723 192.75C163.749 192.75 164.577 191.958 164.577 190.806C164.577 189.654 163.749 188.844 162.723 188.844C161.697 188.844 160.869 189.654 160.869 190.806C160.869 191.958 161.697 192.75 162.723 192.75ZM172.212 195.216C170.34 195.216 168.558 194.19 168.558 192.282H171.078C171.078 192.696 171.384 193.182 172.14 193.182C172.698 193.182 173.166 192.894 173.166 192.498C173.166 192.228 172.968 192.102 172.338 191.958L171.24 191.67C168.774 191.004 168.702 189.6 168.702 188.898C168.702 187.656 170.106 186.378 172.14 186.378C173.724 186.378 175.65 187.116 175.614 189.222H173.094C173.094 188.682 172.716 188.412 172.194 188.412C171.744 188.412 171.366 188.628 171.366 188.988C171.366 189.312 171.654 189.492 172.086 189.6L173.544 189.996C175.65 190.572 175.83 191.904 175.83 192.48C175.83 194.334 173.904 195.216 172.212 195.216ZM186.065 190.626C186.065 190.86 186.047 191.166 186.029 191.58H179.873C180.125 192.39 180.827 192.894 181.835 192.894C182.627 192.894 183.437 192.534 183.959 192.03L185.327 193.758C184.499 194.658 183.059 195.216 181.655 195.216C178.991 195.216 177.119 193.38 177.119 190.824C177.119 188.088 179.225 186.378 181.637 186.378C184.049 186.378 186.065 188.07 186.065 190.626ZM179.855 190.014H183.419C183.383 189.186 182.645 188.628 181.691 188.628C180.899 188.628 180.125 189.006 179.855 190.014ZM198.824 189.636V182.598H201.65V195H199.166L195.098 187.872V195H192.272V182.598H194.864L198.824 189.636ZM212.336 182.598V185.064H207.314V187.674H211.292V190.122H207.314V195H204.488V182.598H212.336ZM213.305 182.598H222.683V185.064H219.407V195H216.581V185.064H213.305V182.598ZM233.622 184.488H233.118C231.804 184.488 231.354 185.172 231.336 186.144V186.594H233.136V188.61H231.336V195H228.672V188.61H227.106V186.594H228.672V186.072C228.672 183.426 230.13 182.022 232.56 182.022H233.622V184.488ZM238.45 195.216C236.056 195.216 233.896 193.452 233.896 190.806C233.896 188.142 236.056 186.378 238.45 186.378C240.844 186.378 243.022 188.142 243.022 190.806C243.022 193.452 240.844 195.216 238.45 195.216ZM238.45 192.75C239.476 192.75 240.304 191.958 240.304 190.806C240.304 189.654 239.476 188.844 238.45 188.844C237.424 188.844 236.596 189.654 236.596 190.806C236.596 191.958 237.424 192.75 238.45 192.75ZM249.901 186.378C250.297 186.378 250.729 186.414 251.161 186.63L250.531 189.168C250.009 188.862 249.595 188.844 249.325 188.844C248.281 188.844 247.417 189.726 247.417 192.21V195H244.753V186.594H247.381V188.376C247.867 186.99 248.875 186.378 249.901 186.378ZM265.901 195H262.607L259.763 190.644H259.187V195H256.361V182.598H261.437C264.317 182.598 265.613 184.65 265.613 186.702C265.613 188.448 264.317 190.122 262.715 190.482L265.901 195ZM261.059 185.064H259.187V188.412H260.987C262.229 188.412 262.769 187.602 262.769 186.774C262.769 185.946 262.211 185.064 261.059 185.064ZM273.375 187.602V186.594H276.039V195H273.375V193.938C272.799 194.73 271.773 195.216 270.711 195.216C268.353 195.216 266.697 193.434 266.697 190.806C266.697 188.16 268.353 186.378 270.747 186.378C271.773 186.378 272.799 186.828 273.375 187.602ZM271.359 192.75C272.439 192.75 273.285 191.832 273.285 190.806C273.285 189.708 272.421 188.844 271.341 188.844C270.207 188.844 269.415 189.726 269.415 190.806C269.415 191.832 270.207 192.75 271.359 192.75ZM294.528 182.022V195H291.882V184.488H290.388C289.074 184.488 288.624 185.172 288.606 186.144V186.594H290.388V188.61H288.606V195H285.942V188.61H281.82V195H279.156V188.61H277.59V186.594H279.156V186.072C279.156 183.426 280.614 182.022 283.044 182.022H284.106V184.488H283.602C282.288 184.488 281.838 185.172 281.82 186.144V186.594H285.942V186.072C285.942 183.426 287.382 182.022 289.83 182.022H294.528ZM305.244 190.626C305.244 190.86 305.226 191.166 305.208 191.58H299.052C299.304 192.39 300.006 192.894 301.014 192.894C301.806 192.894 302.616 192.534 303.138 192.03L304.506 193.758C303.678 194.658 302.238 195.216 300.834 195.216C298.17 195.216 296.298 193.38 296.298 190.824C296.298 188.088 298.404 186.378 300.816 186.378C303.228 186.378 305.244 188.07 305.244 190.626ZM299.034 190.014H302.598C302.562 189.186 301.824 188.628 300.87 188.628C300.078 188.628 299.304 189.006 299.034 190.014Z" fill="#79B2AF"/>
<defs>
<clipPath id="clip0_87_4468">
<rect width="83.14" height="83.14" fill="white" transform="translate(173 76)"/>
</clipPath>
</defs>
</svg>
