<svg width="22" height="21" viewBox="0 0 22 21" fill="none" xmlns="http://www.w3.org/2000/svg">
<g clip-path="url(#clip0_16_1425)">
<path d="M21.0992 20.9634H13.7236C13.3446 20.9634 13.0362 20.655 13.0362 20.276V13.832C13.0362 12.8747 12.2588 12.1038 11.308 12.1038C10.3571 12.1038 9.57972 12.8812 9.57972 13.832V20.276C9.57972 20.655 9.27134 20.9634 8.89228 20.9634H1.50391C1.12485 20.9634 0.816467 20.655 0.816467 20.276V11.0244C0.816467 10.851 0.887139 10.6775 1.00278 10.549L10.8004 0.205288C11.0638 -0.0709726 11.5392 -0.0709726 11.8027 0.205288L21.6003 10.549C21.7224 10.6775 21.7866 10.8445 21.7866 11.0244V20.276C21.7866 20.655 21.4782 20.9634 21.0992 20.9634ZM14.4111 19.5821H20.4053V11.3007L11.3015 1.68296L2.19777 11.3007V19.5821H8.19199V13.832C8.19199 12.1166 9.58615 10.7225 11.3015 10.7225C13.0169 10.7225 14.4111 12.1166 14.4111 13.832V19.5821Z" fill="#DBEF60"/>
</g>
<defs>
<clipPath id="clip0_16_1425">
<rect width="20.9766" height="20.9637" fill="white" transform="translate(0.816528)"/>
</clipPath>
</defs>
</svg>
