<svg width="30" height="16" viewBox="0 0 30 16" fill="none" xmlns="http://www.w3.org/2000/svg">
<g clip-path="url(#clip0_17_2115)">
<path d="M14.47 15.35V15.33C14.45 15.33 14.43 15.33 14.41 15.33C14.34 15.33 14.28 15.35 14.21 15.36C14.27 15.36 14.34 15.36 14.4 15.37C14.42 15.37 14.44 15.37 14.46 15.35H14.47Z" fill="white"/>
<path d="M15.2 15.33V15.36C15.22 15.36 15.24 15.37 15.27 15.36C15.32 15.36 15.37 15.34 15.41 15.34C15.36 15.34 15.31 15.32 15.26 15.31C15.24 15.31 15.22 15.31 15.2 15.32V15.33Z" fill="white"/>
<path d="M29.0901 7.39C27.9201 6.02 26.6601 4.73 25.2301 3.62C23.4201 2.22 21.4401 1.13 19.2101 0.529999C17.8901 0.169999 16.5401 -0.0200014 15.1701 -1.40572e-06C13.1301 0.0399986 11.1601 0.459999 9.26009 1.21C6.93009 2.12 4.82009 3.42 2.86009 4.97C1.93009 5.71 1.06009 6.51 0.240094 7.36C0.200094 7.4 0.170094 7.43 0.140094 7.47C-0.0499062 7.7 -0.0499062 7.83 0.160094 8.04C1.61009 9.5 3.15009 10.84 4.84009 12.01C6.39009 13.07 8.04009 13.94 9.82009 14.54C10.8401 14.89 11.8801 15.15 12.9501 15.26C13.3701 15.31 13.8001 15.32 14.2201 15.34C14.2801 15.33 14.3501 15.32 14.4201 15.31C14.4401 15.31 14.4601 15.31 14.4801 15.31V15.33C14.4601 15.33 14.4401 15.35 14.4201 15.35C14.3601 15.35 14.2901 15.35 14.2301 15.34C14.1901 15.34 14.1601 15.35 14.1201 15.36C14.1001 15.36 14.0901 15.39 14.0701 15.4H15.6601C15.6601 15.4 15.6101 15.36 15.5901 15.35C15.5401 15.34 15.4801 15.33 15.4301 15.32C15.3801 15.32 15.3301 15.34 15.2901 15.34C15.2701 15.34 15.2501 15.34 15.2201 15.34V15.31C15.2401 15.31 15.2601 15.3 15.2801 15.3C15.3301 15.3 15.3801 15.32 15.4301 15.33C15.4601 15.33 15.4901 15.33 15.5201 15.33C16.5101 15.4 17.4801 15.21 18.4401 14.98C21.0401 14.36 23.3501 13.15 25.4701 11.55C26.8101 10.53 28.0401 9.39 29.1201 8.1C29.3901 7.78 29.3901 7.71 29.1201 7.39H29.0901ZM19.5701 11.33C18.6301 12.5 17.4001 13.24 15.9101 13.48C13.9901 13.8 12.2501 13.36 10.7501 12.08C9.59009 11.08 8.87009 9.83 8.74009 8.31C8.55009 5.91 9.51009 4.04 11.5601 2.76C12.6501 2.08 13.5401 1.88 14.8101 1.87C17.3501 1.97 19.2901 3.06 20.3601 5.39C21.3201 7.49 21.0101 9.52 19.5701 11.32V11.33Z" fill="white"/>
<path d="M13.6599 15.42H13.6799C13.6799 15.42 13.6799 15.41 13.6799 15.4C13.6799 15.4 13.6699 15.41 13.6599 15.42Z" fill="white"/>
<path d="M14.7899 4.02C12.6699 4.06 10.9199 5.8 11.0099 7.86C11.1099 10.04 12.7399 11.5 14.8599 11.5C17.2699 11.5 18.7899 9.55 18.6899 7.56C18.5899 5.57 16.8999 3.99 14.7899 4.01V4.02Z" fill="white"/>
</g>
<defs>
<clipPath id="clip0_17_2115">
<rect width="29.3" height="15.42" fill="white"/>
</clipPath>
</defs>
</svg>
