<svg width="44" height="44" viewBox="0 0 44 44" fill="none" xmlns="http://www.w3.org/2000/svg">
<g clip-path="url(#clip0_22_2378)">
<path d="M32.75 0H10.43C4.66967 0 0 4.66967 0 10.43V32.75C0 38.5103 4.66967 43.18 10.43 43.18H32.75C38.5103 43.18 43.18 38.5103 43.18 32.75V10.43C43.18 4.66967 38.5103 0 32.75 0Z" fill="#76ED97"/>
<path d="M22.57 14.74C21.67 14.74 20.9 14.25 20.47 13.52H19.27C19.77 14.86 21.05 15.83 22.57 15.83C24.09 15.83 25.37 14.87 25.87 13.52H24.67C24.25 14.24 23.47 14.74 22.57 14.74Z" fill="#191716"/>
<path d="M20.13 12.3C20.13 10.96 21.22 9.86002 22.57 9.86002C23.92 9.86002 25.01 10.95 25.01 12.3C25.01 12.34 25 12.39 25 12.43H26.09C26.09 12.43 26.1 12.34 26.1 12.3C26.1 10.35 24.52 8.77002 22.57 8.77002C20.62 8.77002 19.04 10.35 19.04 12.3C19.04 12.34 19.05 12.39 19.05 12.43H20.14C20.14 12.43 20.13 12.34 20.13 12.3Z" fill="#191716"/>
<path d="M30.73 19.15C31.89 19.15 32.85 19.96 33.1 21.04H33.29V22.13H33.1C32.85 23.21 31.89 24.02 30.73 24.02C29.57 24.02 28.61 23.21 28.36 22.13H27.26C27.52 23.82 28.98 25.12 30.73 25.12C32.68 25.12 34.26 23.54 34.26 21.59C34.26 19.64 32.68 18.06 30.73 18.06C28.97 18.06 27.52 19.36 27.26 21.04H28.36C28.61 19.96 29.57 19.15 30.73 19.15Z" fill="#191716"/>
<path d="M14.14 33.12C12.8 33.12 11.7 32.03 11.7 30.68C11.7 29.33 12.79 28.24 14.14 28.24C15.3 28.24 16.26 29.05 16.51 30.13H17.61C17.34 28.44 15.89 27.15 14.14 27.15C12.19 27.15 10.61 28.73 10.61 30.68C10.61 32.63 12.19 34.21 14.14 34.21C15.9 34.21 17.35 32.91 17.61 31.22H16.51C16.26 32.3 15.3 33.11 14.14 33.11V33.12Z" fill="#191716"/>
<path d="M19.05 12.43H12.26V13.52H19.27C19.14 13.18 19.07 12.81 19.05 12.43Z" fill="#191716"/>
<path d="M33.71 13.52V12.43H26.08C26.07 12.81 25.99 13.18 25.86 13.52H33.71Z" fill="#191716"/>
<path d="M24.66 13.52H25.86C25.99 13.18 26.06 12.81 26.08 12.43H24.99C24.97 12.83 24.85 13.2 24.66 13.52Z" fill="#191716"/>
<path d="M20.47 13.52C20.28 13.2 20.16 12.83 20.14 12.43H19.05C19.06 12.81 19.14 13.18 19.27 13.52H20.47Z" fill="#191716"/>
<path d="M27.2 21.59C27.2 21.4 27.23 21.22 27.26 21.04H11.84V22.13H27.26C27.23 21.95 27.2 21.77 27.2 21.58V21.59Z" fill="#191716"/>
<path d="M33.1 22.14H33.29V21.05H33.1C33.14 21.23 33.17 21.41 33.17 21.6C33.17 21.79 33.14 21.97 33.1 22.15V22.14Z" fill="#191716"/>
<path d="M27.25 22.14H28.35C28.31 21.96 28.28 21.78 28.28 21.59C28.28 21.4 28.31 21.22 28.35 21.04H27.25C27.22 21.22 27.19 21.4 27.19 21.59C27.19 21.78 27.22 21.96 27.25 22.14Z" fill="#191716"/>
<path d="M17.67 30.68C17.67 30.87 17.64 31.05 17.61 31.23H33.7V30.14H17.61C17.64 30.32 17.67 30.5 17.67 30.69V30.68Z" fill="#191716"/>
<path d="M17.62 30.13H16.52C16.56 30.31 16.59 30.49 16.59 30.68C16.59 30.87 16.56 31.05 16.52 31.23H17.62C17.65 31.05 17.68 30.87 17.68 30.68C17.68 30.49 17.65 30.31 17.62 30.13Z" fill="#191716"/>
</g>
<defs>
<clipPath id="clip0_22_2378">
<rect width="43.18" height="43.18" fill="white"/>
</clipPath>
</defs>
</svg>
