<svg width="144" height="129" viewBox="0 0 144 129" fill="none" xmlns="http://www.w3.org/2000/svg">
<g clip-path="url(#clip0_17_2127)">
<path d="M119.13 103.152C119.082 104.703 120.013 105.877 121.478 106.178C123.563 106.604 125.91 105.14 126.677 102.928C127.258 101.25 126.851 99.7665 125.551 99.0584C125.998 101.27 124.979 102.783 123.194 103.792C121.759 104.606 120.343 104.374 119.13 103.152Z" fill="#FDFFFF"/>
<path d="M0.17452 80.9305C1.45487 92.2884 5.15041 102.802 11.5618 112.317C12.59 113.84 13.8218 115.208 15.2574 116.381C16.819 117.652 18.5358 118.04 20.5145 117.545C23.4244 116.808 26.0627 115.46 28.6331 113.976C29.4285 113.52 29.6128 113.743 29.9134 114.432C31.6012 118.311 33.5605 122.036 36.2861 125.305C39.71 129.417 42.0961 129.941 46.9265 127.632C50.1468 126.09 52.9305 123.918 55.1614 121.163C58.0907 117.565 61.796 115.023 65.8019 112.851C69.3325 110.94 72.9311 109.126 76.4811 107.245C78.3531 106.255 80.2543 105.547 82.4076 105.247C87.7423 104.509 91.4282 100.271 92.1363 94.5677C92.4854 91.7452 92.1169 89.0488 91.2536 86.3815C91.2051 86.2651 91.1469 86.139 91.0984 86.0226C91.0596 86.0226 91.0208 86.0129 91.0014 85.9935C90.982 85.9741 90.9626 85.9644 90.9626 85.945C90.9529 85.9062 90.9626 85.848 90.9917 85.7898C91.0402 85.8189 91.0887 85.848 91.1372 85.8771C91.2439 85.9935 91.3506 86.1099 91.4476 86.2263C94.0277 88.6996 96.8308 90.8238 100.255 92.0071C103.64 93.171 107.035 93.4329 110.43 92.1138C112.098 91.4639 113.475 90.397 114.6 89.0003C114.639 88.9421 114.678 88.8936 114.717 88.8354C114.775 88.9033 114.833 88.9712 114.891 89.0391C115.813 92.2302 116.744 95.4212 117.666 98.6123C117.685 98.7093 117.704 98.8062 117.724 98.9129C117.588 98.8838 117.462 98.8644 117.326 98.8353C115.978 98.3795 114.63 98.0303 113.194 98.3795C110.895 98.9517 110.051 101.173 111.409 103.113C112.176 104.199 113.262 104.888 114.406 105.508C115.638 106.178 116.628 107.089 117.248 108.37C119.217 112.375 121.827 112.725 125.804 111.949C129.839 111.153 133.786 109.766 137.482 107.846C139.121 106.992 140.673 106.032 142.002 104.732C142.739 104.015 143.321 103.19 143.67 102.211C144.776 99.1166 142.972 96.9052 139.742 97.4871C138.82 97.652 138.52 97.5065 138.287 96.556C137.783 94.558 136.017 93.5299 133.951 93.9178C133.282 94.0439 132.962 93.9372 132.564 93.3359C131.361 91.4639 129.13 91.0759 127.22 92.2883C126.046 93.0352 125.192 94.1118 124.193 95.3242C123.505 93.2195 122.845 91.2505 122.205 89.2719C120.081 82.7055 117.966 76.1294 115.813 69.5727C115.57 68.8259 115.687 68.3991 116.317 67.8947C118.17 66.4205 119.673 64.6358 120.818 62.5504C124.378 56.0714 122.166 48.9715 115.512 45.7611C110.662 43.4235 105.638 43.4235 100.536 44.8008L100.488 44.8687H100.4C100.4 44.8687 100.313 44.9366 100.245 44.9366C100.148 44.9366 100.061 44.9463 99.9638 44.956C99.9929 44.8881 100.022 44.8105 100.051 44.7426C100.168 44.6747 100.294 44.6068 100.41 44.5293V44.4905C103.378 41.8523 105.764 38.7873 107.015 34.9755C108.499 30.4362 108.616 25.9552 105.153 22.2113C101.69 18.4674 97.2285 18.2152 92.5727 19.3403C89.9248 19.9805 87.5387 21.2317 85.3465 22.8514C85.2205 23.0648 85.1138 23.0745 85.0265 22.832C84.0953 20.6109 82.8634 18.5935 81.1175 16.9252C76.6654 12.6672 70.5159 12.5605 66.0735 16.8379C61.408 21.3286 60.0209 27.0415 60.3313 33.3072C60.4186 35.1307 60.826 36.9153 61.3789 38.9425C60.6417 38.409 60.1276 38.0308 59.5942 37.6719C55.1033 34.6166 50.2826 32.5798 44.715 32.929C37.6343 33.3751 33.2695 38.7485 34.2201 45.7805C34.4431 47.4487 34.8214 49.0782 35.5004 50.6301C35.6459 50.698 35.6653 50.7853 35.5489 50.9017C34.8408 51.0859 34.2686 50.6689 33.6769 50.4458C29.5837 48.9327 25.9463 46.7116 23.0364 43.4138C22.2023 42.473 21.5233 41.4255 21.1062 40.2228C20.8831 39.5826 20.9219 39.2432 21.727 39.1268C23.9773 38.8067 25.3449 37.3712 26.0433 35.315C26.2858 34.5875 26.6835 34.3644 27.3237 34.1996C30.5633 33.3654 33.5217 32.0366 35.6071 29.2626C39.5742 23.9862 37.4597 17.8563 31.0677 16.2656C30.1753 16.0426 30.1074 15.6837 30.1268 14.9271C30.2141 11.6488 30.3305 8.36075 29.7194 5.1115C29.477 3.8312 29.0017 2.6382 28.1966 1.60038C26.7223 -0.290978 24.4235 -0.475263 22.6582 1.14451C21.2711 2.41511 20.4854 3.99609 20.4369 5.88744C20.3981 7.29383 20.3981 8.70023 20.3884 10.1066C20.6406 10.3588 20.6212 10.6207 20.4175 10.8923C20.1072 10.7274 19.9908 10.4752 20.0587 10.1454C19.3021 8.33165 18.4194 6.59549 17.1003 5.1212C16.6347 4.59744 16.1109 4.10278 15.5484 3.69541C14.0352 2.5994 12.4057 1.83316 10.5628 2.90977C9.13693 3.74391 8.48706 5.85835 8.90414 7.94368C9.29213 9.91263 10.0487 11.7458 10.9605 13.5305C11.1059 13.8117 11.5715 14.1221 10.7762 14.3355C7.06122 15.3151 5.00491 18.2734 5.66448 21.9979C6.28526 25.4702 7.11942 28.9232 10.2233 31.2025C10.7083 31.5614 10.4852 31.9687 10.4076 32.3567C9.75771 35.5283 10.9314 37.7107 13.9285 38.8358C14.268 38.9619 14.6754 38.9328 14.7336 39.505C15.2477 44.5002 18.2739 47.9822 21.8822 51.0471C25.2285 53.8987 29.0696 55.8386 33.3471 56.6533C32.8815 57.2062 32.445 57.7784 31.9504 58.3022C29.1957 61.212 27.1297 64.4321 27.0521 68.6222C26.9842 72.2982 28.5749 75.111 31.4848 77.1963C35.4907 80.0673 40.0689 80.5232 44.812 80.1546C46.6743 80.0091 48.5075 79.6211 50.7287 78.981C47.7704 82.172 46.0729 85.528 45.8402 89.7471C45.2679 89.1167 44.8411 88.6317 44.4046 88.1662C41.7081 85.2952 38.7498 82.754 35.0542 81.2506C32.2607 80.1158 29.477 79.7763 26.7805 81.6192C26.15 82.0459 25.6456 82.56 25.1897 83.1905C23.8803 81.5804 22.6485 79.9509 21.2808 78.4281C18.2739 75.0819 14.9179 72.2012 10.5628 70.6978C8.02148 69.8249 5.48989 69.9413 2.968 70.756C1.63916 71.1925 1.05718 72.3176 0.669199 73.53C-0.116467 75.9645 -0.106767 78.4863 0.17452 80.9693V80.9305ZM29.0696 13.3753C28.9435 15.7613 28.9532 15.6934 26.5962 15.8389C23.7736 16.0135 21.0577 16.5081 19.4282 19.2433C19.3894 19.3015 19.3506 19.35 19.3021 19.4082C19.2536 19.3306 19.2051 19.253 19.1663 19.1754C17.9927 16.6827 15.9945 15.189 13.3757 14.4519C13.0556 14.3646 12.7064 14.3549 12.493 13.9766C11.2999 11.7749 10.1845 9.52466 9.9129 7.00286C9.77711 5.77105 10.0293 4.52955 11.1835 3.79241C12.299 3.08436 13.366 3.59842 14.365 4.18038C15.6066 4.90782 16.5474 5.93594 17.3234 7.13865C18.5843 9.0882 19.5058 11.1832 20.1654 13.4044C20.2721 13.7826 20.34 14.3549 20.9413 14.2385C21.436 14.1415 21.3778 13.6565 21.3875 13.2686C21.4263 10.9214 21.4651 8.58383 21.4942 6.23662C21.5136 4.58774 22.0859 3.19105 23.2789 2.04654C24.7339 0.659549 26.4119 0.834135 27.537 2.5121C28.2451 3.56932 28.6331 4.75263 28.7883 6.01353C29.0793 8.45774 29.2054 10.9117 29.0793 13.3753H29.0696ZM18.109 33.3945C12.2408 32.056 7.84689 29.1656 6.85753 22.6186C6.45015 19.9223 7.41041 16.7603 9.34062 15.7904C12.7258 14.1027 18.1963 17.2065 18.4776 20.9698C18.6425 23.1133 17.3622 24.2772 15.2283 23.9086C14.1128 23.7147 13.1526 23.2297 12.4348 22.3374C12.1826 22.027 11.9401 21.7651 11.5812 22.0561C11.232 22.3374 11.3872 22.6962 11.6394 22.9775C12.8713 24.3839 14.4329 25.0823 16.3049 25.0144C17.983 24.9562 19.0402 24.0541 19.5058 22.2501C20.0102 23.2006 20.5048 23.9377 21.242 24.4809C23.6087 26.2171 29.8843 26.3723 32.2801 24.7428C32.542 24.5585 32.8233 24.3645 32.6099 23.9862C32.4256 23.6565 32.1249 23.6274 31.7952 23.7535C31.5042 23.8601 31.2229 23.9959 30.9222 24.1026C28.3324 25.0144 25.7038 25.0338 23.0946 24.219C21.4263 23.6953 20.34 22.2307 20.3302 20.6497C20.3206 18.9329 21.5621 18.2055 22.9103 17.6914C26.1209 16.479 29.3509 16.5275 32.5129 17.8466C35.1803 18.962 36.5868 21.2801 36.451 24.1705C36.3443 26.4499 35.287 28.38 33.5799 29.7476C29.0308 33.3848 23.8221 34.6942 18.0896 33.3848L18.109 33.3945ZM13.8606 37.5555C11.9789 36.8087 11.1156 35.121 11.3581 33.1326C11.4551 32.3276 11.5909 32.1045 12.4833 32.5119C16.4698 34.3159 20.5533 35.7223 25.2188 34.6554C24.6854 36.1394 23.9967 37.3324 22.5903 37.7495C19.6804 38.603 16.7317 38.7 13.8606 37.5555ZM34.5013 54.888C34.1328 55.4021 33.7739 55.567 33.1337 55.4215C27.4691 54.1412 22.9006 51.115 19.1954 46.7213C17.8763 45.1597 16.8384 43.4235 16.237 41.4449C15.8167 40.0741 16.3082 39.3886 17.7114 39.3886C18.1769 39.3886 18.6522 39.4177 19.1178 39.3886C19.5737 39.3499 19.8065 39.4371 19.9229 39.9512C20.3497 41.7941 21.4166 43.2877 22.6969 44.6262C26.0239 48.1374 30.0977 50.4361 34.6565 51.9298C34.9766 52.0365 35.5004 51.9783 35.5489 52.3662C35.6653 53.3653 35.0639 54.1218 34.511 54.888H34.5013ZM118.141 101.541C117.054 104.665 119.353 107.565 122.651 107.332C124.989 107.167 127.142 105.382 127.831 103.045C128.558 100.591 127.627 98.4959 125.289 97.4871C124.707 97.235 124.543 96.8858 124.843 96.4202C125.745 95.0429 126.725 93.7141 128.228 92.9285C129.47 92.2883 130.566 92.6181 131.517 93.588C132.021 94.0924 132.166 94.4998 131.352 94.8877C130.43 95.3242 129.674 96.0226 128.995 96.7888C128.675 97.1574 127.899 97.5356 128.461 98.1079C129.043 98.6898 129.412 97.9333 129.751 97.5744C130.847 96.4299 132.069 95.4697 133.621 95.0429C135.522 94.5192 136.9 95.3145 137.433 97.1089C137.637 97.8072 137.492 98.1273 136.813 98.4377C135.901 98.8644 135.067 99.4561 134.223 100.019C133.825 100.29 133.224 100.659 133.709 101.212C134.145 101.716 134.533 101.144 134.892 100.882C136.444 99.7374 138.122 98.8256 140.052 98.5056C142.215 98.137 143.36 99.4755 142.72 101.58C142.351 102.773 141.565 103.695 140.624 104.48C138.743 106.052 136.589 107.138 134.339 108.059C130.838 109.495 127.297 110.814 124.184 111.085C120.847 111.085 119.635 110.445 118.461 108.176C117.598 106.517 116.395 105.276 114.756 104.393C113.892 103.927 113.058 103.413 112.457 102.618C111.351 101.173 111.836 99.7568 113.611 99.3688C115.066 99.0487 116.376 99.4852 117.636 100.184C118.228 100.513 118.393 100.814 118.131 101.551L118.141 101.541ZM125.571 99.0584C126.87 99.7568 127.278 101.25 126.696 102.928C125.93 105.15 123.582 106.614 121.497 106.178C120.032 105.877 119.101 104.694 119.15 103.152C120.362 104.364 121.778 104.597 123.214 103.792C124.998 102.783 126.017 101.28 125.571 99.0584ZM116.424 85.3049C117.918 80.7462 116.763 76.3622 114.523 72.2497C114.164 71.5901 113.951 71.0664 114.649 70.5426C114.659 70.4941 114.678 70.4456 114.697 70.4165C114.746 70.3195 114.824 70.3099 114.94 70.4844C115.008 70.6687 115.095 70.8433 115.153 71.0276C118.199 80.4165 121.235 89.8053 124.281 99.1845C124.824 100.853 124.155 102.317 122.486 102.967C121.138 103.491 120.226 103.045 119.809 101.658C118.703 97.9139 117.646 94.1603 116.473 90.4455C115.929 88.7093 115.803 87.1768 116.414 85.3049H116.424ZM71.1464 99.1748C68.9736 95.7995 68.7409 92.075 69.3325 88.2147C69.4004 87.7782 69.7593 87.0798 69.0028 86.9441C68.2559 86.8083 68.3529 87.5842 68.2462 88.0207C67.9261 89.301 68.1686 90.6783 67.6739 91.9392C65.8213 96.653 59.7203 100.261 54.6862 99.5919C52.9693 99.3591 51.5435 98.7965 50.7481 96.9731C49.9431 95.1205 48.7209 93.462 47.4891 91.8422C47.1399 91.3766 46.975 90.9111 46.9847 90.3388C47.0235 85.0624 49.4387 81.0954 53.658 78.108C54.0557 77.8268 54.6862 77.6134 54.337 76.9635C53.9781 76.2943 53.4446 76.7308 53.0081 76.9053C51.1652 77.6716 49.2641 78.2632 47.2951 78.6318C42.1543 79.5823 37.1493 79.4174 32.5808 76.5465C29.6709 74.7133 28.0123 72.0169 28.1287 68.5349C28.2645 64.3739 30.476 61.1635 33.415 58.4186C36.0048 55.9938 38.7401 53.8599 42.6587 54.8008C42.6975 54.8008 42.7363 54.8105 42.7751 54.8105C43.1631 54.8298 43.648 54.8977 43.6965 54.374C43.745 53.8405 43.231 53.7823 42.8624 53.7629C41.6111 53.7144 40.3599 53.6659 39.1086 53.7144C38.517 53.7338 38.1969 53.5786 37.9059 53.0646C36.7322 50.9308 35.8205 48.6999 35.4131 46.2848C34.3946 40.3489 37.256 35.635 42.6878 34.3062C44.3755 33.8892 46.102 33.8407 47.8189 34.0638C53.2797 34.7815 57.8676 37.3227 61.9318 40.9308C62.3391 41.2897 62.7077 42.085 63.3576 41.6195C63.9784 41.1733 63.2994 40.6399 63.1054 40.184C61.9512 37.4488 61.3886 34.5972 61.3595 31.1443C61.4759 26.7699 62.6398 22.2501 65.9377 18.5256C68.285 15.8777 71.2046 14.2773 74.8613 14.9174C79.7596 15.771 82.4173 19.2336 84.0371 23.5595C84.5318 24.8786 84.8228 24.6458 85.6375 24.0347C89.1973 21.348 93.1159 19.6798 97.6844 19.9223C103.504 20.2326 107.52 25.0629 106.802 30.863C106.045 36.925 102.777 41.3964 97.9851 44.9269C97.6747 45.1597 97.3449 45.3731 97.0442 45.6253C96.7145 45.9065 96.6272 46.2945 96.8309 46.6825C97.0636 47.1287 97.4419 47.0511 97.8493 46.9056C98.8775 46.537 99.8959 46.1102 100.943 45.8386C106.492 44.4129 111.914 44.4905 116.812 47.8464C120.459 50.3488 122.069 53.9084 121.177 58.3119C120.168 63.307 116.831 66.5659 112.651 69.1168C112.137 69.4272 111.759 69.1362 111.371 68.8938C109.528 67.7492 107.559 66.9151 105.444 66.4496C105.075 66.3623 104.688 66.3526 104.571 66.7696C104.445 67.2158 104.823 67.371 105.172 67.4777C106.036 67.7395 106.928 67.8947 107.753 68.2439C109.402 68.9326 111.235 69.4854 112.34 70.9209C114.154 73.2584 115.221 76.0033 115.735 78.9325C117.278 87.6715 110.934 93.6462 102.331 91.4445C95.8706 89.7859 91.4088 85.6153 88.3728 79.7957C88.1788 79.4174 88.0236 79.0101 87.8199 78.6318C87.5677 78.1662 87.1507 78.0693 86.7239 78.3311C86.2777 78.6027 86.5881 78.9422 86.753 79.2429C87.1895 80.0673 87.6744 80.882 88.0624 81.7259C89.789 85.4601 91.4767 89.1943 91.1275 93.4814C90.6619 99.039 87.8199 102.793 83.0283 104.044C78.6344 105.198 73.7168 103.229 71.127 99.1942L71.1464 99.1748ZM68.0813 93.8208C68.4984 96.5172 69.3422 98.8353 70.9621 100.804C71.3307 101.26 71.2046 101.415 70.7584 101.638C65.7922 104.18 60.826 106.731 55.8695 109.291C55.3748 109.543 55.2002 109.485 55.113 108.932C54.6862 105.974 53.7162 103.181 52.4941 100.3C59.3032 101.91 64.1239 99.0293 68.0716 93.8111L68.0813 93.8208ZM45.0157 127.215V127.08C45.0157 127.08 45.0351 126.992 45.0448 126.944C45.1515 126.692 45.2582 126.439 45.3455 126.187C45.394 126.061 45.4328 125.935 45.4813 125.799C45.5686 125.547 45.6365 125.285 45.7044 125.023C46.0729 123.598 46.1893 122.123 46.1602 120.639C45.9953 111.57 43.4832 103.064 39.7682 94.8974C37.45 89.8053 34.8602 84.8587 29.9813 81.5804C30.5633 81.2409 31.1453 81.3767 31.7079 81.4446C34.3074 81.7744 36.548 82.9577 38.6237 84.4611C43.8711 88.2535 47.6346 93.2971 50.5929 98.9711C52.3583 102.356 53.6483 105.906 54.1139 109.718C54.3176 111.386 54.2206 111.396 55.7143 110.63C60.6126 108.108 65.5109 105.586 70.4189 103.084C70.7875 102.899 71.2143 102.337 71.641 102.899C72.8244 104.451 74.5024 105.227 76.5005 105.964C74.5315 106.992 72.805 107.943 71.0397 108.826C64.2209 112.22 57.6833 115.935 52.7657 122.026C52.5232 122.317 52.2807 122.608 52.0188 122.88C51.6308 123.297 51.2137 123.685 50.7869 124.053C49.1962 125.402 47.3339 126.43 45.3067 127.147C45.2194 127.167 45.1418 127.196 45.0545 127.215C45.0545 127.215 45.0545 127.215 45.0448 127.215H45.0157ZM25.2479 93.268C24.8988 90.4649 24.8406 87.6521 25.7038 84.9072C26.5477 82.2302 28.216 81.6968 30.5051 83.3456C31.9795 84.4126 33.1725 85.7608 34.1716 87.2641C40.7867 97.2059 44.23 108.215 45.0933 120.067C45.0351 121.89 44.9963 123.685 44.4337 125.421C43.5899 128.059 41.9894 128.612 39.7294 127.031C38.1387 125.916 36.8874 124.461 35.8205 122.86C29.8455 113.869 26.5574 103.918 25.2479 93.268ZM21.3584 115.925C22.3381 113.685 22.5418 111.318 22.3769 108.923C21.7173 99.0196 18.6328 89.8247 14.0546 81.1051C12.1147 77.4194 9.8741 73.9277 6.33376 71.2022C8.98174 71.0567 11.1156 71.852 13.1332 73.0159C17.7793 75.6832 21.2226 79.592 24.2295 83.9276C24.4817 84.2865 24.6078 84.6453 24.4914 85.1303C23.6669 88.6899 23.9288 92.2689 24.4332 95.8383C25.1994 101.231 26.7029 106.43 28.6719 111.512C28.8465 111.968 29.1666 112.424 28.4876 112.802C27.925 113.122 27.3721 113.442 26.8096 113.753C25.1315 114.694 23.4147 115.576 21.533 116.09C21.4748 116.129 21.4166 116.168 21.3681 116.207C21.3681 116.119 21.3584 116.022 21.3487 115.935L21.3584 115.925ZM1.80405 73.6367C2.52182 71.5805 3.89916 71.1246 5.74208 72.2982C7.17762 73.2099 8.31247 74.4611 9.34062 75.7899C12.1826 79.4659 14.268 83.5687 16.0139 87.8461C18.8947 94.8974 21.0092 102.133 21.2711 109.815C21.3002 111.27 21.2129 112.715 20.8152 114.121C20.0393 116.837 18.5164 117.361 16.2079 115.683C14.4426 114.393 13.0847 112.725 11.9207 110.911C6.18826 102.046 2.77401 92.3174 1.36757 81.8811C0.998985 79.1362 0.863191 76.3428 1.80405 73.6464V73.6367Z" fill="#090906"/>
<path d="M20.4274 10.8438C20.117 10.6789 20.0006 10.4267 20.0685 10.0969C20.1849 10.0872 20.2916 10.0775 20.408 10.0678C20.6602 10.32 20.6408 10.5819 20.4371 10.8535L20.4274 10.8438Z" fill="#4F514A"/>
<path d="M35.5588 50.8532C35.5394 50.7659 35.5297 50.6689 35.5103 50.5816C35.6557 50.6495 35.6751 50.7368 35.5588 50.8532Z" fill="#757575"/>
<path d="M100.4 44.8396C100.4 44.7329 100.4 44.6165 100.41 44.5099V44.4711C100.449 44.5777 100.488 44.6747 100.526 44.7814L100.478 44.8493H100.391L100.4 44.8396Z" fill="#666666"/>
<path d="M85.0266 22.8029C85.1333 22.8029 85.24 22.8223 85.3467 22.8223C85.2206 23.0357 85.1139 23.0454 85.0266 22.8029Z" fill="#757575"/>
<path d="M114.901 89.0294C114.804 89.0197 114.707 89.0003 114.61 88.9906C114.649 88.9324 114.688 88.8839 114.727 88.8257C114.785 88.8936 114.843 88.9615 114.901 89.0294Z" fill="#666666"/>
<path d="M83.0382 104.024C87.8298 102.773 90.6718 99.0196 91.1373 93.462C91.4962 89.1749 89.8085 85.4407 88.0723 81.7065C87.6746 80.8529 87.1993 80.0479 86.7628 79.2235C86.6076 78.9228 86.2972 78.5833 86.7337 78.3117C87.1508 78.0595 87.5776 78.1565 87.8298 78.6124C88.0335 78.9907 88.1887 79.398 88.3827 79.7763C91.4186 85.5959 95.8804 89.7665 102.34 91.4251C110.944 93.6268 117.278 87.6521 115.745 78.9131C115.231 75.9839 114.164 73.2487 112.35 70.9015C111.245 69.466 109.402 68.9132 107.762 68.2245C106.938 67.885 106.046 67.7202 105.182 67.4583C104.843 67.3516 104.455 67.1964 104.581 66.7502C104.707 66.3235 105.085 66.3429 105.454 66.4301C107.568 66.9054 109.537 67.7395 111.38 68.8744C111.768 69.1168 112.147 69.4078 112.661 69.0974C116.841 66.5465 120.178 63.2876 121.187 58.2925C122.079 53.889 120.469 50.3197 116.822 47.827C111.924 44.4711 106.501 44.3935 100.953 45.8192C99.8961 46.0908 98.8873 46.5176 97.8591 46.8862C97.4615 47.0317 97.0832 47.1092 96.8407 46.6631C96.637 46.2751 96.7243 45.8871 97.0541 45.6059C97.3451 45.3537 97.6749 45.1403 97.9949 44.9075C102.787 41.377 106.055 36.9056 106.812 30.8436C107.539 25.0532 103.514 20.2132 97.6943 19.9029C93.1258 19.6604 89.2071 21.3286 85.6474 24.0153C84.8326 24.6264 84.5416 24.8592 84.0469 23.5401C82.4271 19.2142 79.7694 15.7613 74.8711 14.898C71.2144 14.2579 68.2948 15.8583 65.9475 18.5062C62.6497 22.2307 61.4857 26.7408 61.3693 31.1249C61.3984 34.5681 61.961 37.4197 63.1152 40.1646C63.3092 40.6204 63.9882 41.1636 63.3674 41.6001C62.7176 42.0656 62.349 41.2703 61.9416 40.9114C57.8775 37.3033 53.2896 34.7621 47.8287 34.0444C46.1119 33.8213 44.3951 33.8795 42.6976 34.2868C37.2659 35.6156 34.4045 40.3295 35.4229 46.2654C35.84 48.6805 36.7421 50.9113 37.9157 53.0452C38.2067 53.5689 38.5268 53.7241 39.1185 53.695C40.3697 53.6465 41.621 53.695 42.8722 53.7435C43.2408 53.7629 43.7549 53.8211 43.7064 54.3546C43.6579 54.8783 43.1729 54.8104 42.7849 54.7911C42.7461 54.7911 42.7073 54.7911 42.6685 54.7814C38.7499 53.8405 36.0146 55.9841 33.4248 58.3992C30.4859 61.1441 28.284 64.3545 28.1386 68.5155C28.0222 71.9975 29.6808 74.6939 32.5907 76.5271C37.1592 79.4077 42.1739 79.5629 47.3049 78.6124C49.2739 78.2535 51.1654 77.6522 53.018 76.8859C53.4545 76.7017 53.9879 76.2749 54.3468 76.9441C54.696 77.594 54.0655 77.8074 53.6679 78.0886C49.4388 81.076 47.0333 85.0527 46.9945 90.3194C46.9945 90.9014 47.1497 91.3669 47.4989 91.8228C48.7308 93.4426 49.9529 95.1011 50.758 96.9537C51.5533 98.7771 52.9792 99.3494 54.696 99.5725C59.7301 100.242 65.8311 96.6336 67.6838 91.9198C68.1784 90.6589 67.9359 89.2816 68.256 88.0013C68.3627 87.5648 68.256 86.7889 69.0126 86.9247C69.7692 87.0605 69.4103 87.7491 69.3424 88.1953C68.7507 92.0459 68.9835 95.7801 71.1562 99.1554C73.746 103.19 78.6637 105.15 83.0576 104.005L83.0382 104.024ZM46.1313 54.6747C46.141 54.9947 45.9179 55.1499 45.6172 55.1499C45.2777 55.1499 45.0255 55.0335 44.977 54.6456C45.0158 54.3352 45.2098 54.1897 45.5105 54.1703C45.85 54.1606 46.1216 54.2867 46.141 54.665L46.1313 54.6747ZM101.322 66.1101C101.361 65.7997 101.555 65.6251 101.865 65.6251C102.224 65.6154 102.476 65.7609 102.466 66.1586C102.466 66.4301 102.272 66.5756 102.011 66.5853C101.671 66.6047 101.409 66.4883 101.322 66.1101ZM69.6043 81.9393C69.7498 81.3282 69.6043 80.5135 70.3414 80.2516C70.7779 80.0964 70.8264 80.6008 70.8167 81.0178C70.5936 81.5416 70.8652 82.4048 70.0795 82.6473C69.6431 82.7831 69.517 82.2981 69.6043 81.9393ZM84.8229 27.0997C84.3961 28.9232 83.9402 30.7369 83.5038 32.5604C83.4262 32.8804 83.3195 33.2102 82.9315 33.1811C82.4562 33.1423 82.4659 32.7447 82.4756 32.2112C82.8442 30.5041 83.2322 28.6322 83.8433 26.8184C83.9597 26.4595 84.0566 26.091 84.5222 26.2171C84.9878 26.3432 84.9005 26.7796 84.8229 27.0997ZM74.1631 63.9859C73.746 64.4127 73.3483 64.8395 72.9312 65.2371C68.8089 69.2526 62.3975 69.4175 58.1588 65.5669C55.1713 62.8608 54.0364 59.4176 54.2983 55.4409C54.6184 50.6592 58.2267 46.3236 62.9116 45.1791C67.5577 44.0443 72.3105 46.0811 74.842 50.3294C75.2785 51.0568 75.6083 51.8425 75.9963 52.6087C80.4775 48.1277 85.0945 47.0801 89.7212 49.4565C94.0472 51.6776 96.5691 56.8085 95.7834 61.7939C94.9687 66.9733 91.0985 70.9791 86.1615 71.6483C82.0391 72.2109 76.7723 70.4747 74.1631 63.9956V63.9859ZM74.1922 73.9083C72.6984 73.8792 71.4666 73.6852 70.3123 73.142C69.5946 72.8026 68.9447 72.3758 68.4888 71.7162C68.2851 71.4253 68.1202 71.0664 68.4694 70.7754C68.838 70.465 69.0999 70.7366 69.3424 71.0179C70.6421 72.531 72.3977 72.7735 74.231 72.7638C74.9778 72.7638 75.7829 72.7929 75.4531 71.5901C75.3464 71.2119 75.521 70.756 76.0351 70.7463C76.4716 70.7463 76.5783 71.1246 76.5783 71.5029C76.5783 72.7444 77.199 73.4621 78.4212 73.6852C78.7413 73.7434 79.042 73.918 78.9353 74.3253C78.848 74.6939 78.5182 74.7715 78.1884 74.7424C77.9168 74.7133 77.587 74.7036 77.4124 74.5484C76.3649 73.6561 75.1912 73.627 74.1825 73.918L74.1922 73.9083Z" fill="#AEEC5F"/>
<path d="M25.6942 84.9169C26.5381 82.2399 28.2064 81.7065 30.4955 83.3553C31.9699 84.4223 33.1629 85.7705 34.162 87.2738C40.7771 97.2156 44.2204 108.224 45.0837 120.077C45.0255 121.9 44.9867 123.695 44.4241 125.431C43.5803 128.069 41.9798 128.622 39.7198 127.041C38.1291 125.925 36.8778 124.47 35.8109 122.87C29.836 113.879 26.5478 103.927 25.2384 93.2777C24.8892 90.4746 24.831 87.6618 25.6942 84.9169Z" fill="#4E9B96"/>
<path d="M5.74209 72.2885C7.17763 73.2002 8.31248 74.4514 9.34064 75.7802C12.1826 79.4562 14.268 83.559 16.0139 87.8364C18.8947 94.8877 21.0092 102.123 21.2711 109.805C21.3002 111.26 21.2129 112.705 20.8152 114.112C20.0393 116.827 18.5164 117.351 16.2079 115.673C14.4426 114.383 13.0847 112.715 11.9207 110.901C6.18827 102.036 2.77402 92.3077 1.36758 81.8714C0.998994 79.1265 0.8632 76.3331 1.80406 73.6367C2.52183 71.5805 3.89917 71.1246 5.74209 72.2982V72.2885Z" fill="#4E9B96"/>
<path d="M45.2679 127.147C45.1903 127.08 45.1127 127.021 45.0351 126.953C45.1418 126.701 45.2485 126.449 45.3358 126.197C45.3843 126.071 45.4231 125.945 45.4716 125.809C45.5589 125.557 45.6268 125.295 45.6947 125.033C46.0633 123.607 46.1797 122.133 46.1506 120.649C45.9857 111.58 43.4735 103.074 39.7586 94.9071C37.4404 89.815 34.8506 84.8684 29.9717 81.5901C30.5537 81.2506 31.1356 81.3864 31.6982 81.4543C34.2977 81.7841 36.5383 82.9674 38.614 84.4707C43.8615 88.2631 47.6249 93.3068 50.5833 98.9808C52.3486 102.366 53.6387 105.916 54.1042 109.728C54.3079 111.396 54.2109 111.406 55.7047 110.639C60.603 108.118 65.5012 105.596 70.4092 103.093C70.7778 102.909 71.2046 102.346 71.6314 102.909C72.8147 104.461 74.4928 105.237 76.4909 105.974C74.5219 107.002 72.7953 107.953 71.03 108.835C64.2112 112.23 57.6737 115.945 52.756 122.036C52.5135 122.327 52.271 122.618 52.0091 122.889C51.6211 123.307 51.2041 123.695 50.7773 124.063C49.1866 125.411 47.3242 126.439 45.297 127.157L45.2679 127.147Z" fill="#3E8180"/>
<path d="M51.9801 122.889C51.5922 123.307 51.1751 123.695 50.7483 124.063C51.1848 123.695 51.5922 123.307 51.9801 122.889Z" fill="#3E8180"/>
<path d="M18.109 33.4042C12.2408 32.0657 7.84686 29.1753 6.85751 22.6283C6.45012 19.932 7.41038 16.77 9.3406 15.8001C12.7258 14.1124 18.1963 17.2162 18.4776 20.9795C18.6425 23.123 17.3622 24.2869 15.2282 23.9183C14.1128 23.7244 13.1525 23.2394 12.4348 22.3471C12.1826 22.0367 11.9401 21.7748 11.5812 22.0658C11.232 22.3471 11.3872 22.7059 11.6394 22.9872C12.8712 24.3936 14.4329 25.092 16.3049 25.0241C17.9829 24.9659 19.0402 24.0638 19.5058 22.2598C20.0101 23.2103 20.5048 23.9474 21.242 24.4906C23.6087 26.2268 29.8843 26.382 32.2801 24.7525C32.542 24.5682 32.8233 24.3742 32.6099 23.9959C32.4256 23.6662 32.1249 23.6371 31.7951 23.7632C31.5041 23.8698 31.2229 24.0056 30.9222 24.1123C28.3324 25.0241 25.7038 25.0435 23.0946 24.2287C21.4263 23.705 20.3399 22.2404 20.3302 20.6594C20.3205 18.9426 21.5621 18.2152 22.9103 17.7011C26.1209 16.4887 29.3508 16.5372 32.5129 17.8563C35.1803 18.9717 36.5867 21.2898 36.4509 24.1802C36.3442 26.4595 35.287 28.3897 33.5799 29.7573C29.0307 33.3945 23.8221 34.7039 18.0896 33.3945L18.109 33.4042Z" fill="#FDFFFF"/>
<path d="M22.3673 108.932C21.7078 99.0293 18.6233 89.8344 14.0451 81.1148C12.1052 77.4291 9.86457 73.9374 6.32422 71.2119C8.9722 71.0664 11.1061 71.8617 13.1236 73.0256C17.7697 75.6929 21.2131 79.6017 24.2199 83.9373C24.4721 84.2962 24.5982 84.655 24.4818 85.14C23.6574 88.6996 23.9193 92.2786 24.4236 95.848C25.1899 101.241 26.6933 106.44 28.6624 111.522C28.8369 111.978 29.157 112.434 28.4781 112.812C27.9155 113.132 27.3626 113.452 26.8 113.762C25.122 114.703 23.4052 115.586 21.5235 116.1C21.4653 116.052 21.3974 115.993 21.3392 115.945C22.3188 113.704 22.5225 111.338 22.3576 108.942L22.3673 108.932Z" fill="#3E8180"/>
<path d="M26.8095 113.753C25.1315 114.694 23.4147 115.576 21.533 116.09C23.4147 115.576 25.1218 114.694 26.8095 113.753Z" fill="#3E8180"/>
<path d="M118.131 101.551C117.045 104.674 119.344 107.574 122.641 107.342C124.979 107.177 127.132 105.392 127.821 103.055C128.548 100.601 127.617 98.5056 125.28 97.4968C124.698 97.2447 124.533 96.8955 124.834 96.4299C125.736 95.0526 126.715 93.7238 128.219 92.9382C129.46 92.298 130.556 92.6278 131.507 93.5977C132.011 94.1021 132.157 94.5095 131.342 94.8974C130.421 95.3339 129.664 96.0323 128.985 96.7985C128.665 97.1671 127.889 97.5453 128.451 98.1176C129.033 98.6996 129.402 97.943 129.742 97.5841C130.838 96.4396 132.06 95.4794 133.612 95.0526C135.513 94.5289 136.89 95.3242 137.424 97.1186C137.627 97.8169 137.482 98.137 136.803 98.4474C135.891 98.8741 135.057 99.4658 134.213 100.028C133.815 100.3 133.214 100.668 133.699 101.221C134.135 101.726 134.523 101.153 134.882 100.892C136.434 99.7471 138.112 98.8353 140.043 98.5153C142.206 98.1467 143.35 99.4852 142.71 101.59C142.341 102.783 141.556 103.704 140.615 104.49C138.733 106.061 136.58 107.148 134.329 108.069C130.828 109.505 127.288 110.824 124.174 111.095C120.837 111.095 119.625 110.455 118.451 108.185C117.588 106.527 116.385 105.285 114.746 104.403C113.883 103.937 113.049 103.423 112.447 102.628C111.341 101.183 111.826 99.7665 113.601 99.3785C115.056 99.0584 116.366 99.4949 117.627 100.193C118.218 100.523 118.383 100.824 118.121 101.561L118.131 101.551Z" fill="#FDFFFF"/>
<path d="M26.5962 15.8389C23.7736 16.0135 21.0577 16.5081 19.4282 19.2433C19.3409 19.2239 19.2536 19.1948 19.1663 19.1754C17.9927 16.6827 15.9946 15.189 13.3757 14.4519C13.0556 14.3646 12.7064 14.3549 12.493 13.9766C11.3 11.7749 10.1845 9.52466 9.91292 7.00286C9.77713 5.77105 10.0293 4.52955 11.1836 3.79241C12.299 3.08436 13.366 3.59842 14.365 4.18038C15.6066 4.90782 16.5474 5.93594 17.3234 7.13865C18.5843 9.08819 19.5058 11.1832 20.1654 13.4044C20.2721 13.7826 20.34 14.3549 20.9413 14.2385C21.436 14.1415 21.3778 13.6565 21.3875 13.2686C21.4263 10.9214 21.4651 8.58383 21.4942 6.23662C21.5136 4.58774 22.0859 3.19105 23.2789 2.04654C24.7339 0.659548 26.4119 0.834135 27.5371 2.5121C28.2451 3.56932 28.6331 4.75263 28.7883 6.01353C29.0793 8.45774 29.2054 10.9117 29.0793 13.3753C28.9532 15.7613 28.9629 15.6934 26.6059 15.8389H26.5962Z" fill="#FDFFFF"/>
<path d="M114.513 72.2497C114.154 71.5901 113.941 71.0664 114.639 70.5426C114.736 70.5232 114.833 70.5038 114.921 70.4844C114.989 70.6687 115.076 70.8433 115.134 71.0276C118.18 80.4165 121.216 89.8053 124.261 99.1845C124.805 100.853 124.135 102.317 122.467 102.967C121.119 103.491 120.207 103.045 119.79 101.658C118.684 97.9139 117.627 94.1603 116.453 90.4455C115.91 88.7093 115.784 87.1768 116.395 85.3049C117.889 80.7462 116.734 76.3622 114.494 72.2497H114.513Z" fill="#3E8180"/>
<path d="M33.124 55.4312C27.4595 54.1509 22.891 51.1247 19.1857 46.731C17.8666 45.1694 16.8287 43.4332 16.2274 41.4546C15.807 40.0838 16.2985 39.3983 17.7017 39.3983C18.1673 39.3983 18.6426 39.4274 19.1081 39.3983C19.564 39.3596 19.7968 39.4468 19.9132 39.9609C20.34 41.8038 21.4069 43.2974 22.6873 44.6359C26.0142 48.1471 30.0881 50.4458 34.6469 51.9395C34.9669 52.0462 35.4907 51.988 35.5392 52.3759C35.6556 53.375 35.0542 54.1315 34.5014 54.8977C34.1328 55.4118 33.7739 55.5767 33.1337 55.4312H33.124Z" fill="#3E8180"/>
<path d="M13.8511 37.5555C11.9694 36.8086 11.1061 35.121 11.3486 33.1326C11.4456 32.3276 11.5814 32.1045 12.4737 32.5119C16.4603 34.3159 20.5438 35.7223 25.2093 34.6554C24.6758 36.1394 23.9871 37.3324 22.5807 37.7495C19.6708 38.603 16.7222 38.7 13.8511 37.5555Z" fill="#FDFFFF"/>
<path d="M91.147 85.9935L91.1954 85.9644C91.1954 85.9644 91.1954 85.9644 91.1954 85.945C91.176 85.9159 91.147 85.8674 91.147 85.8674C91.2536 85.9838 91.3603 86.1002 91.4573 86.2166C91.3894 86.2651 91.3215 86.3233 91.2633 86.3718C91.2148 86.2554 91.1567 86.1293 91.1082 86.0129C91.1082 86.0129 91.1276 86.0032 91.1567 85.9838L91.147 85.9935Z" fill="#FDFFFF"/>
<path d="M91.1372 85.8674C91.2439 85.9838 91.3506 86.1002 91.4476 86.2166C91.3409 86.1002 91.2342 85.9838 91.1372 85.8674Z" fill="#FDFFFF"/>
<path d="M45.0352 126.953L45.268 127.147C45.1807 127.167 45.1031 127.196 45.0158 127.215C45.0158 127.215 45.0158 127.215 45.0061 127.215C45.0061 127.167 45.0061 127.128 45.0158 127.08C45.0158 127.031 45.0158 126.992 45.0255 126.944L45.0352 126.953Z" fill="#3E8180"/>
<path d="M45.0158 127.089C45.0158 127.089 45.0158 127.177 45.0061 127.225V127.089H45.0158Z" fill="#3E8180"/>
<path d="M45.2679 127.147L45.0352 126.953C45.1128 127.021 45.1903 127.089 45.2679 127.147Z" fill="#3E8180"/>
<path d="M100.245 44.9075C100.148 44.9075 100.061 44.9172 99.9639 44.9269C99.993 44.859 100.022 44.7814 100.051 44.7135C100.119 44.7814 100.177 44.8493 100.245 44.9075Z" fill="#868686"/>
<path d="M114.93 70.4844C114.833 70.5038 114.736 70.5232 114.649 70.5426C114.659 70.4941 114.678 70.4456 114.697 70.4165C114.746 70.3196 114.824 70.3099 114.94 70.4844H114.93Z" fill="#757575"/>
<path d="M114.688 70.4165C114.688 70.4165 114.659 70.4941 114.639 70.5426C114.649 70.4941 114.668 70.4456 114.688 70.4165Z" fill="#757575"/>
<path d="M100.245 44.9075C100.177 44.8396 100.119 44.7717 100.051 44.7135C100.168 44.6456 100.294 44.5777 100.41 44.5002C100.41 44.6068 100.41 44.7232 100.4 44.8299C100.362 44.8784 100.313 44.9075 100.245 44.9075Z" fill="#868686"/>
<path d="M100.051 44.7135C100.119 44.7814 100.177 44.8493 100.245 44.9075C100.177 44.8396 100.119 44.7717 100.051 44.7135Z" fill="#868686"/>
<path d="M117.675 98.6026C117.695 98.6996 117.714 98.7965 117.734 98.9032C117.598 98.8741 117.472 98.8547 117.336 98.8256C117.452 98.748 117.559 98.6802 117.675 98.6026Z" fill="#FDFFFF"/>
<path d="M19.3021 19.4082C19.2536 19.3306 19.2051 19.253 19.1663 19.1754C19.2536 19.1948 19.3409 19.2239 19.4281 19.2433C19.3894 19.3015 19.3506 19.35 19.3021 19.4082Z" fill="#949494"/>
<path d="M19.3021 19.4082C19.2536 19.3306 19.2051 19.253 19.1663 19.1754C19.2148 19.253 19.2633 19.3306 19.3021 19.4082Z" fill="#949494"/>
<path d="M21.3683 116.207C21.3683 116.119 21.3586 116.022 21.3489 115.935C21.4071 115.984 21.475 116.042 21.5332 116.09L21.3683 116.207Z" fill="#3E8180"/>
<path d="M21.5331 116.09C21.4749 116.129 21.4167 116.168 21.3682 116.207L21.5331 116.09Z" fill="#3E8180"/>
<path d="M91.1857 85.9547V85.9741C91.1857 85.9741 91.1662 85.9838 91.1371 86.0032L91.0887 86.0323C91.0887 86.0323 91.0111 86.0226 90.9917 86.0032C90.9723 85.9838 90.9529 85.9741 90.9529 85.9547C90.9432 85.9159 90.9529 85.8577 90.982 85.7996C91.0305 85.8287 91.0789 85.8578 91.1274 85.8869C91.1274 85.8869 91.1565 85.9353 91.1759 85.9644L91.1857 85.9547Z" fill="#666666"/>
<path d="M86.1711 71.6289C91.1082 70.9597 94.9783 66.9539 95.7931 61.7745C96.5787 56.7891 94.0568 51.6679 89.7308 49.4371C85.0944 47.0511 80.4774 48.1083 76.0059 52.5893C75.6179 51.8231 75.2881 51.0374 74.8517 50.31C72.3201 46.0617 67.5576 44.0249 62.9212 45.1597C58.2363 46.3042 54.628 50.6398 54.3079 55.4215C54.0461 59.3982 55.1809 62.8414 58.1684 65.5475C62.4071 69.3884 68.8185 69.2235 72.9408 65.2177C73.3579 64.8201 73.7459 64.3933 74.1727 63.9665C76.7819 70.4456 82.0584 72.1818 86.1711 71.6192V71.6289ZM74.8323 54.6553C73.7459 56.8085 73.4064 59.1072 73.6974 61.4738C73.7847 62.2207 73.6101 62.7444 73.193 63.2876C68.9155 68.8356 60.7388 68.467 57.0529 62.502C54.8026 58.855 54.7056 55.0335 56.7522 51.2702C58.6146 47.8561 61.5923 46.0811 65.0163 45.9453C69.8952 46.0229 73.7847 49.0588 75.0069 53.3362C75.1523 53.8405 75.0651 54.2188 74.842 54.6553H74.8323ZM74.7159 59.7571C74.7644 54.0539 79.3814 49.3013 84.7937 49.3692C90.6135 49.4371 94.8425 54.1121 94.7649 60.3778C94.697 66.081 90.0412 70.6784 84.4154 70.6008C78.9837 70.5232 74.6577 65.693 74.7062 59.7571H74.7159Z" fill="#090906"/>
<path d="M68.5082 71.7065C68.3045 71.4156 68.1396 71.0567 68.4888 70.7657C68.8574 70.4553 69.1193 70.7269 69.3617 71.0082C70.6615 72.5213 72.4171 72.7638 74.2503 72.7541C74.9972 72.7541 75.8023 72.7832 75.4725 71.5805C75.3658 71.2022 75.5404 70.7463 76.0545 70.7366C76.4909 70.7366 76.5976 71.1149 76.5976 71.4932C76.5976 72.7347 77.2184 73.4524 78.4406 73.6755C78.7606 73.7337 79.0613 73.9083 78.9546 74.3156C78.8673 74.6842 78.5375 74.7618 78.2078 74.7327C77.9362 74.7036 77.6064 74.6939 77.4318 74.5387C76.3842 73.6464 75.2106 73.6173 74.2018 73.9083C72.7081 73.8792 71.4763 73.6852 70.322 73.142C69.6042 72.8026 68.9544 72.3758 68.4985 71.7162L68.5082 71.7065Z" fill="#090906"/>
<path d="M83.5133 32.5507C83.4357 32.8708 83.329 33.2005 82.941 33.1714C82.4658 33.1326 82.4755 32.735 82.4852 32.2015C82.8537 30.4944 83.2417 28.6225 83.8528 26.8087C83.9692 26.4498 84.0662 26.0813 84.5318 26.2074C84.9974 26.3335 84.9101 26.7699 84.8325 27.09C84.4057 28.9135 83.9498 30.7272 83.5133 32.5507Z" fill="#121405"/>
<path d="M70.3511 80.2419C70.7875 80.0867 70.836 80.5911 70.8263 81.0081C70.6033 81.5319 70.8748 82.3951 70.0892 82.6376C69.6527 82.7734 69.5266 82.2884 69.6139 81.9296C69.7594 81.3185 69.6139 80.5038 70.3511 80.2419Z" fill="#121405"/>
<path d="M45.6172 55.1499C45.2777 55.1499 45.0255 55.0335 44.9771 54.6456C45.0158 54.3352 45.2098 54.1897 45.5105 54.1703C45.85 54.1606 46.1216 54.2867 46.141 54.665C46.1507 54.985 45.9276 55.1402 45.6269 55.1402L45.6172 55.1499Z" fill="#121405"/>
<path d="M101.865 65.6154C102.224 65.6057 102.476 65.7512 102.466 66.1489C102.466 66.4204 102.272 66.5659 102.01 66.5756C101.671 66.595 101.409 66.4786 101.322 66.1004C101.361 65.79 101.555 65.6154 101.865 65.6154Z" fill="#121405"/>
<path d="M74.7257 59.7571C74.6675 65.693 78.9935 70.5232 84.435 70.6008C90.0607 70.6784 94.7165 66.081 94.7844 60.3778C94.862 54.1121 90.6233 49.4371 84.8132 49.3692C79.4009 49.3013 74.7839 54.0539 74.7354 59.7571H74.7257ZM77.2088 59.7668C77.2088 55.8192 80.235 52.6572 84.0664 52.6184C87.9268 52.5796 91.1374 55.858 91.1568 59.8444C91.1762 63.7435 88.0626 66.983 84.2701 66.9927C80.3611 67.0024 77.2088 63.7726 77.1991 59.7571L77.2088 59.7668Z" fill="#FDFFFF"/>
<path d="M74.842 54.665C75.0651 54.2285 75.1524 53.8502 75.0069 53.3459C73.7848 49.0685 69.9049 46.0326 65.0163 45.955C61.5924 46.1005 58.6146 47.8658 56.7523 51.2799C54.7057 55.0432 54.8027 58.8647 57.053 62.5117C60.7388 68.4767 68.9253 68.8453 73.1931 63.2973C73.6102 62.7541 73.7945 62.2304 73.6975 61.4835C73.4065 59.1169 73.7557 56.8182 74.8323 54.665H74.842ZM71.7963 56.5078C71.7963 60.4457 68.7216 63.598 64.8902 63.598C60.9619 63.598 57.858 60.3972 57.858 56.3526C57.858 52.4147 60.9425 49.2431 64.7544 49.2334C68.6149 49.2237 71.7963 52.5117 71.7963 56.5078Z" fill="#FDFFFF"/>
<path d="M84.0663 52.6281C87.9267 52.5893 91.1373 55.8677 91.1567 59.8541C91.1761 63.7532 88.0625 66.9927 84.27 67.0024C80.361 67.0121 77.2087 63.7823 77.199 59.7668C77.199 55.8192 80.2253 52.6572 84.0566 52.6184L84.0663 52.6281Z" fill="#090906"/>
<path d="M64.8806 63.5883C60.9523 63.5883 57.8484 60.3875 57.8484 56.3429C57.8484 52.405 60.9329 49.2334 64.7448 49.2237C68.6052 49.214 71.7867 52.502 71.7867 56.4981C71.7867 60.436 68.7119 63.5883 64.8806 63.5883Z" fill="#090906"/>
</g>
<defs>
<clipPath id="clip0_17_2127">
<rect width="144" height="129" fill="white"/>
</clipPath>
</defs>
</svg>
