<svg width="469" height="117" viewBox="0 0 469 117" fill="none" xmlns="http://www.w3.org/2000/svg">
<g clip-path="url(#clip0_86_2590)">
<path d="M141.887 46.2355C139.966 46.2138 138.045 46.2573 136.146 46.1921C138.067 46.279 139.988 46.2138 141.887 46.2573V46.2355Z" fill="white"/>
<path d="M411.697 82.421C410.121 76.6252 407.51 71.3287 403.884 66.5749C399.179 60.4319 393.308 55.7432 386.294 52.4655C384.805 51.7709 384.826 51.7274 385.97 50.5987C393.74 42.9145 401.531 35.2302 409.301 27.5243C409.625 27.2204 410.316 26.9816 410.121 26.5258C410.014 26.2653 409.237 26.2219 408.762 26.2219C402.762 26.2002 396.762 26.2002 390.74 26.2002C390.071 26.2002 389.488 26.3738 388.992 26.8514C384.157 31.6052 379.322 36.359 374.466 41.1128C374.402 41.1779 374.294 41.243 374.229 41.3081C374.186 41.1779 374.121 41.0694 374.099 40.9391C374.056 39.8538 373.991 38.7684 373.991 37.6831C373.991 31.8005 373.991 25.918 373.991 20.0354C373.991 20.0354 373.97 20.0354 373.948 20.0354C373.948 13.7838 373.948 7.55397 373.948 1.30239C373.948 0.542652 373.689 0.368997 372.977 0.368997C369.135 0.368997 365.315 0.368997 361.473 0.34729C359.488 0.34729 359.444 0.34729 359.444 2.34432C359.444 28.0018 359.444 53.6594 359.444 79.3169C359.444 81.9 359.315 84.5048 359.552 87.0879C359.596 87.4786 359.099 87.9996 360.006 88.043C364.452 88.195 368.898 88.1516 373.344 88.0647C373.84 88.0647 373.991 87.8477 373.991 87.3267C373.991 82.3341 373.991 77.3415 373.991 72.3707C373.991 69.7441 373.991 67.1393 374.035 64.5128C374.035 64.2523 373.905 63.6228 374.38 63.8182C375.394 64.2306 376.495 64.2523 377.509 64.643C383.035 66.8571 387.891 70.0263 391.603 74.7801C394.603 78.6005 396.805 82.7683 397.819 87.5438C397.927 87.9996 398.186 88.043 398.531 88.043C403.064 88.1733 407.596 88.1733 412.129 88.0647C412.798 88.0647 412.97 87.8694 412.841 87.1748C412.539 85.5684 412.15 83.9621 411.719 82.3775L411.697 82.421Z" fill="white"/>
<path d="M201.111 31.844C196.859 26.8731 191.312 24.2031 184.837 23.4434C177.909 22.6402 171.456 23.9427 165.715 28.0887C160.556 31.8005 157.405 36.9885 155.247 42.8276C153.52 47.4946 152.959 52.3786 153.11 56.5247C153.11 60.1931 153.153 62.9933 153.671 65.8152C154.535 70.5473 156.132 74.9538 158.7 79.0347C162.995 85.8506 169.211 89.7362 177.089 90.7781C186.176 91.9937 194.269 89.6059 200.593 82.79C205.643 77.3198 208.233 70.5473 209.032 63.167C209.55 58.4349 209.464 53.6594 208.73 48.9273C207.737 42.5237 205.32 36.7497 201.133 31.844H201.111ZM192.046 69.4619C189.499 74.4111 185.528 76.5601 179.981 76.1477C174.434 75.7352 170.96 72.6311 169.233 67.5734C166.772 60.4319 166.837 53.2252 169.686 46.1705C171.995 40.4399 176.291 37.5529 182.075 37.9436C186.758 38.2692 190.341 40.5484 192.391 44.9549C194.01 48.428 194.571 52.1182 194.658 55.8952C194.744 60.5838 194.248 65.1857 192.046 69.4185V69.4619Z" fill="white"/>
<path d="M136.729 53.985C131.462 51.1848 125.721 49.5568 120.239 47.2993C118.146 46.431 116.052 45.4759 114.412 43.8262C112.772 42.1982 113.074 40.7438 115.21 39.4848C115.858 39.0941 116.592 38.8336 117.326 38.66C120.952 37.8351 124.556 37.3576 128.268 38.508C131.592 39.5282 133.038 41.0694 133.275 44.5425C133.275 44.8247 133.319 45.1069 133.319 45.3674C133.319 45.8449 133.47 45.9969 133.988 46.062C134.635 46.1271 144.93 46.1705 146.571 46.2791C147.801 46.3659 148.125 46.1271 147.995 44.7813C147.758 42.285 147.585 39.767 146.765 37.401C144.455 30.7153 139.664 26.591 133.016 24.659C125.57 22.4666 118.103 22.5535 110.786 25.3754C107.289 26.7212 104.333 28.8268 102.002 31.8006C99.6274 34.8613 98.7857 38.4646 98.6562 42.2199C98.5483 45.5193 99.7354 48.5149 101.505 51.2282C104.678 56.0472 109.534 58.7605 114.606 60.9963C117.865 62.4507 121.318 63.4492 124.664 64.7516C127.448 65.837 130.254 66.9657 132.671 68.7674C133.556 69.4403 134.419 70.1349 134.484 71.4156C134.592 73.608 133.038 75.5399 130.642 75.8872C126.822 76.4299 123.002 76.2346 119.462 74.5848C117.002 73.4561 114.822 71.9149 114.951 68.7023C114.951 68.3332 114.736 68.2464 114.412 68.2464C109.836 67.9859 105.261 67.7255 100.685 67.465C100.232 67.4433 100.124 67.5952 100.102 68.0294C99.9512 72.4141 101.138 76.4299 103.556 80.0115C107.7 86.1329 113.915 88.9548 120.887 90.4308C123.779 91.0386 126.714 91.1472 129.671 90.9518C134.441 90.6696 138.714 89.1935 142.47 86.1329C149.938 80.055 151.47 69.3535 145.966 61.4956C143.592 58.1093 140.29 55.9169 136.729 54.0284V53.985Z" fill="white"/>
<path d="M353.164 69.2232C351.005 69.2232 348.826 69.2232 346.667 69.2232C345.545 69.2232 344.444 69.2232 343.322 69.2232C342.178 69.2232 341.034 69.2666 339.912 69.3317C339.631 69.3317 339.156 69.2449 339.178 69.7442C339.307 72.3273 338.034 74.0855 335.552 74.7368C333.761 75.2143 331.948 75.2143 330.199 74.7368C325.386 73.5212 322.581 70.0915 320.962 65.6633C318.933 60.1063 318.998 54.4408 320.919 48.8622C322.624 43.913 325.451 40.0492 331.041 38.9638C335.077 38.1824 337.883 39.8972 338.552 43.913C338.66 44.5208 339.07 44.4774 339.459 44.4991C343.71 44.8464 347.142 44.803 351.092 45.0635C353.315 45.2154 353.315 45.172 353.229 42.9796C352.862 34.2969 346.451 26.5475 337.991 24.7241C333.955 23.8559 329.919 23.8776 325.883 25.0497C322.926 25.8963 320.185 27.0902 317.724 28.9136C310.753 34.0798 307.041 41.2431 305.487 49.6002C303.695 59.2381 305.077 68.3766 310.106 76.9509C315.329 85.8507 327.458 91.6247 337.257 89.5625C342.394 88.4772 346.732 86.1329 350.034 81.9869C352.862 78.4269 353.79 74.2375 353.876 69.7876C353.876 69.2232 353.552 69.2449 353.164 69.2449V69.2232Z" fill="white"/>
<path d="M214.751 0H229.557V56.7417C229.557 56.7417 229.32 70.5907 230.183 72.6746C231.047 74.7584 233.334 77.8191 238.169 77.7757C244.579 77.7106 246.457 69.5922 246.716 66.423C246.975 63.2538 246.651 26.3521 246.651 26.3521H261.759L261.112 60.3451C260.874 68.8325 266.249 73.5211 272.918 73.8033C273.112 73.8033 273.673 73.7816 273.889 73.7816C284.508 73.9119 284.357 63.8399 284.443 62.1468C284.832 54.1369 284.961 26.1134 284.961 26.1134H299.94V88.2384H286.537V83.159C286.537 83.159 281.702 90.1703 271.666 89.8013C271.666 89.8013 260.119 90.4308 253.471 80.2069C253.471 80.2069 248.335 92.6015 232.147 91.1254C232.147 91.1254 215.334 91.3642 214.795 69.0061V0H214.751Z" fill="white"/>
<path d="M415.625 26.2653H430.194L430.258 63.4492C430.258 65.7501 430.971 68.0076 432.352 69.831C434.035 72.0451 437.014 74.1724 442.172 73.8468C442.172 73.8468 449.899 73.8468 453.288 66.3796C454.172 64.4477 454.561 62.3204 454.561 60.1932L454.518 26.2219H468.892V83.8102C468.892 83.8102 471.698 114.873 451.129 116.891C450.698 116.935 442.561 118.281 433.647 111.421C432.633 110.64 431.273 109.424 429.568 108.339C425.294 105.604 419.64 106.82 416.899 111.096C416.855 111.161 416.834 111.204 416.791 111.269L415.625 113.397L403.085 107.666C403.085 107.666 408.546 94.1644 421.539 93.383C421.539 93.383 427.625 91.8852 436.323 97.9631C436.323 97.9631 440.381 101.241 445.151 102.391C448.669 103.238 452.575 102.131 453.978 98.788C455.122 96.0312 455.834 91.7115 454.259 85.4383C454.259 85.4383 420.891 100.438 416.078 66.9657L415.647 26.2653H415.625Z" fill="white"/>
<path d="M65.4616 89.6277C64.8141 90.1486 64.0587 90.4742 63.2817 90.7781C62.0083 91.2774 60.6702 91.603 59.4399 92.1891C58.9004 92.4496 58.5335 92.3627 58.0802 91.9937C56.2025 90.5394 54.7132 88.716 53.3319 86.8058C52.8787 86.1763 52.4254 85.5468 52.0585 84.8739C51.6053 84.049 51.1089 83.2458 50.6988 82.3993C50.3966 81.7698 50.0297 81.162 49.706 80.5325C49.3822 79.8596 49.0585 79.1867 48.7347 78.492C47.0081 74.6716 45.4973 70.7644 44.0944 66.8138C44.0296 66.5967 43.9217 66.4013 43.857 66.1843C43.7922 65.9455 43.7059 65.9889 43.5332 66.1191C42.7778 66.6618 42.5836 67.465 42.5836 68.3332C42.5836 69.1364 42.6915 69.8961 42.8857 70.6776C43.2526 72.1319 43.598 73.5863 43.7059 75.0841C43.7706 75.7787 43.857 76.495 43.9001 77.1896C43.9865 78.3835 44.0296 79.5557 43.9433 80.7496C43.8786 81.531 43.8786 82.3342 43.7059 83.0939C43.5548 83.7885 43.4901 84.5048 43.3174 85.2212C42.7994 87.2399 41.9577 89.1067 40.6411 90.7347C39.7346 91.8418 38.6339 92.7318 37.382 93.383C35.7417 94.2512 33.9935 94.7939 32.1374 94.8807C30.5186 94.9676 29.0726 94.49 27.7128 93.6434C27.2596 93.3613 26.8495 92.9922 26.4179 92.6666C26.1157 92.4279 25.7704 92.2108 25.4898 91.9286C25.0581 91.5162 24.5617 91.1471 24.1301 90.7347C23.0077 89.7145 21.8207 88.8028 20.4178 88.2384C19.6839 87.9345 18.9285 87.7392 18.1731 87.5004C16.4465 87.0011 14.7198 86.5019 13.1874 85.5251C12.4104 85.0258 11.6766 84.4831 11.1802 83.68C10.986 83.3761 10.7486 83.0939 10.5543 82.79C10.2953 82.421 10.2306 81.9651 10.0795 81.5744C9.88523 81.0535 9.62623 80.5542 9.5399 79.9898C9.47515 79.5991 9.45357 79.1867 9.4104 78.7742C9.30249 77.9277 9.21616 77.0811 9.4104 76.2345C9.56148 75.5833 9.60465 74.9104 9.7989 74.2592C10.3169 72.5444 11.137 70.9815 12.1299 69.5054C12.5399 68.9193 13.0148 68.3766 13.4896 67.834C14.2882 66.944 15.1731 66.1191 16.1443 65.4462C17.1803 64.7299 18.2379 64.057 19.4034 63.5794C21.4322 62.7546 23.5041 62.1034 25.5545 61.3653C26.7632 60.9312 28.015 60.5839 29.2237 60.1497C30.4971 59.6939 31.7057 59.1295 32.5906 58.0442C32.7633 57.8271 32.7633 57.7403 32.5259 57.5883C31.8352 57.1976 31.123 57.0457 30.3244 57.0891C29.2021 57.1759 28.2093 57.5883 27.2164 58.0442C25.6624 58.7388 24.0006 59.1729 22.3818 59.6288C21.3458 59.911 20.2883 60.1715 19.2307 60.3885C18.5185 60.5405 17.8062 60.649 17.094 60.7575C16.3601 60.8878 15.6047 60.9095 14.8709 60.9963C14.2234 61.0614 13.5759 60.9963 12.9284 60.9963C11.8709 60.9963 10.8133 60.8661 9.77732 60.6273C8.61183 60.3451 7.51109 59.911 6.45352 59.3466C5.48229 58.8256 4.59738 58.1961 3.82039 57.4364C2.7844 56.4162 1.96425 55.2223 1.29517 53.9199C0.734011 52.8128 0.410265 51.6624 0.172851 50.4685C0.0217698 49.687 0.0217698 48.9056 0.129685 48.1241C0.30235 46.8434 0.690845 45.5844 1.48942 44.4991C1.96425 43.8479 2.48224 43.2401 3.02182 42.6323C4.07939 41.4384 5.11537 40.2228 5.76286 38.7251C6.17294 37.7917 6.45352 36.8149 6.7341 35.8381C7.27368 33.9713 7.61901 32.0394 8.46075 30.2811C8.91399 29.3477 9.47515 28.4577 10.2521 27.7631C10.7917 27.2856 11.3745 26.808 12.022 26.4607C12.6047 26.1568 13.2738 25.9831 13.8997 25.701C14.6119 25.3753 15.3673 25.1583 16.1227 25.0715C16.8997 24.9846 17.6767 24.8978 18.4753 25.0063C18.9933 25.0932 19.5113 25.0932 20.0293 25.1583C20.5688 25.2234 21.0868 25.3536 21.6048 25.5056C21.8854 25.5924 22.1876 25.6792 22.4682 25.7444C23.1156 25.8963 23.7416 26.1351 24.3243 26.4173C25.3819 26.8948 26.3963 27.4592 27.3459 28.1538C28.4467 28.957 29.3747 29.9121 30.1733 30.9974C31.0582 32.1913 31.7273 33.5154 32.3316 34.8612C33.4108 37.1839 34.2741 39.615 35.4612 41.8943C36.195 43.2835 37.1231 44.5642 38.2022 45.7147C38.3533 45.8666 38.3965 45.8666 38.4828 45.6496C38.7202 45.0852 38.7634 44.4774 38.785 43.8696C38.8497 42.4804 38.4396 41.1562 38.0295 39.8321C37.6195 38.508 37.231 37.1839 36.7777 35.8815C36.3892 34.7093 36.0439 33.5371 35.677 32.365C35.418 31.5401 35.2237 30.6718 35.0727 29.8035C34.9216 28.9353 34.9 28.0453 34.9216 27.1336C34.9647 25.9397 35.2453 24.811 35.5691 23.6822C35.7417 23.031 36.0439 22.4232 36.3029 21.8154C36.6914 20.8386 37.2741 19.9703 37.9 19.1238C38.5907 18.147 39.4109 17.2787 40.3605 16.5189C40.7274 16.2151 41.0512 15.8894 41.4181 15.6073C41.6339 15.4336 41.9145 15.3251 42.1519 15.1948C42.9073 14.7173 43.6843 14.3048 44.526 14.001C45.9505 13.5017 47.4182 13.2629 48.9722 13.5451C49.6412 13.6753 50.2887 13.849 50.9146 14.1095C51.5405 14.37 52.1449 14.7173 52.7276 15.1297C53.2672 15.4987 53.8068 15.8677 54.3248 16.2585C54.9722 16.7577 55.6197 17.2136 56.2672 17.6911C57.109 18.3206 58.037 18.7765 59.0083 19.1889C59.9795 19.5796 60.9939 19.7533 62.0299 19.9052C63.3681 20.0789 64.7062 20.1657 66.0228 20.4913C66.7998 20.6867 67.4688 21.0991 68.1595 21.5332C68.6559 21.8588 69.1092 22.2061 69.5624 22.6186C71.1164 24.0295 72.0229 25.8095 72.2819 27.8716C72.4977 29.5648 72.325 31.2796 71.7855 32.9076C71.3106 34.3403 70.7279 35.7512 69.9077 37.0319C69.5408 37.5963 69.1739 38.1824 68.7638 38.7251C68.0084 39.7236 67.2098 40.6787 66.2386 41.4601C65.3969 42.1548 64.512 42.806 63.5623 43.3486C62.3321 44.065 61.0371 44.6727 59.7853 45.3457C58.814 45.8449 57.8212 46.3008 56.8284 46.7783C55.7277 47.2993 54.5406 47.6032 53.4183 48.0807C52.7924 48.3412 52.188 48.6234 51.6269 48.9924C50.9578 49.4266 50.4614 50.0126 50.0729 50.7073C49.9434 50.946 50.0081 51.0546 50.2456 51.1631C51.0657 51.5321 51.8643 51.4236 52.6844 51.2065C54.0442 50.8592 55.296 50.1863 56.591 49.6436C57.627 49.2095 58.7061 48.8188 59.7421 48.3846C60.6918 47.9939 61.6414 47.5598 62.6127 47.2125C63.0875 47.0388 63.5839 46.8651 64.0587 46.6915C64.922 46.3876 65.7854 46.1271 66.6703 45.9752C67.2746 45.8666 67.9005 45.8232 68.5264 45.7798C69.1307 45.7581 69.7566 45.7798 70.361 45.7798C70.9653 45.8015 71.5696 45.8449 72.174 45.9752C72.4977 46.062 72.843 46.0837 73.1884 46.1488C74.0948 46.3225 74.9798 46.5395 75.8431 46.8869C76.8143 47.2776 77.7856 47.6249 78.6705 48.1893C80.2676 49.1661 81.6705 50.3382 82.6849 51.9663C83.095 52.6392 83.4835 53.3338 83.6346 54.1152C83.7425 54.6145 83.8504 55.1355 83.9151 55.6564C84.0878 57.0891 83.9151 58.4349 83.4619 59.7807C83.0734 60.9963 82.2964 61.9948 81.5194 62.9716C80.7208 63.9919 79.9007 64.9904 79.4474 66.2277C79.1885 66.9657 79.0374 67.7037 79.0158 68.4852C79.0158 69.5922 79.1237 70.6993 79.0158 71.8063C78.8215 73.5863 78.0877 75.1275 76.9438 76.495C76.469 77.0594 75.951 77.5587 75.3682 77.9928C74.5481 78.6223 73.6848 79.1867 72.7351 79.5774C72.174 79.8162 71.6344 80.0984 71.0516 80.2286C70.4473 80.3588 69.843 80.5759 69.2171 80.641C68.0516 80.7496 66.8861 80.8147 65.7206 80.641C64.8573 80.5108 64.0587 80.2069 63.2601 79.903C62.44 79.5991 61.6846 79.2084 60.9292 78.7742C59.6989 78.0145 58.5766 77.1028 57.5406 76.0826C56.591 75.1492 55.7492 74.129 54.9291 73.0653C54.4111 72.3924 53.9578 71.6761 53.4614 70.9815C52.8139 70.0481 52.188 69.1147 51.6269 68.1379C51.0873 67.2045 50.6125 66.2494 49.9218 65.4245C49.5117 64.9253 48.9937 64.5779 48.411 64.3175C48.2383 64.2523 48.152 64.2958 48.1088 64.4911C47.9793 65.1206 47.9362 65.7718 48.0009 66.4013C48.0441 66.8572 48.1304 67.3347 48.2599 67.7906C48.6484 69.1581 49.1664 70.4822 49.7707 71.7629C50.5477 73.4126 51.4326 75.0189 52.3823 76.5818C53.2888 78.0796 54.2816 79.4906 55.3823 80.8581C55.5982 81.1403 55.7708 81.5093 56.0082 81.7047C56.5478 82.1822 56.9795 82.7466 57.4759 83.2676C59.7637 85.6553 62.2673 87.8043 65.2458 89.3021C65.3537 89.3455 65.4616 89.3889 65.5264 89.4974L65.4616 89.6277Z" fill="#76ED97"/>
</g>
<defs>
<clipPath id="clip0_86_2590">
<rect width="469" height="117" fill="white"/>
</clipPath>
</defs>
</svg>
