<svg width="24" height="23" viewBox="0 0 24 23" fill="none" xmlns="http://www.w3.org/2000/svg">
<g clip-path="url(#clip0_16_1430)">
<path d="M12.3165 23C5.97829 23 0.816528 17.8444 0.816528 11.5C0.816528 5.1556 5.97829 0 12.3165 0C18.6548 0 23.8165 5.16176 23.8165 11.5C23.8165 17.8382 18.6548 23 12.3165 23ZM12.3165 1.23192C6.65584 1.23192 2.04845 5.83931 2.04845 11.5C2.04845 17.1607 6.65584 21.7681 12.3165 21.7681C17.9772 21.7681 22.5846 17.1607 22.5846 11.5C22.5846 5.83931 17.9772 1.23192 12.3165 1.23192Z" fill="#DBEF60"/>
<path d="M10.8874 13.7914L10.8566 13.4156C10.7704 12.6334 11.0291 11.7833 11.7498 10.921C12.3965 10.1572 12.76 9.59666 12.76 8.94375C12.76 8.21075 12.298 7.71798 11.3864 7.70566C10.869 7.70566 10.29 7.87813 9.92654 8.15531L9.5816 7.24369C10.0559 6.89875 10.8813 6.66469 11.6451 6.66469C13.302 6.66469 14.0535 7.68718 14.0535 8.7836C14.0535 9.76297 13.5053 10.4713 12.8154 11.2967C12.181 12.0482 11.9469 12.6826 11.9962 13.4156L12.0085 13.7914H10.8813H10.8874ZM10.5671 15.8117C10.5671 15.2758 10.9306 14.9001 11.4356 14.9001C11.9407 14.9001 12.2857 15.2758 12.2857 15.8117C12.2857 16.3168 11.9531 16.7049 11.4172 16.7049C10.9121 16.7049 10.5671 16.3168 10.5671 15.8117Z" fill="#DBEF60"/>
</g>
<defs>
<clipPath id="clip0_16_1430">
<rect width="23" height="23" fill="white" transform="translate(0.816528)"/>
</clipPath>
</defs>
</svg>
