<svg width="26" height="26" viewBox="0 0 26 26" fill="none" xmlns="http://www.w3.org/2000/svg">
<path d="M22.39 0H3.28C1.4685 0 0 1.46851 0 3.28V22.39C0 24.2015 1.4685 25.67 3.28 25.67H22.39C24.2015 25.67 25.67 24.2015 25.67 22.39V3.28C25.67 1.46851 24.2015 0 22.39 0Z" fill="#4E7271"/>
<path d="M17.58 19.9501C17.45 20.0601 17.29 20.1201 17.14 20.1801C16.88 20.2801 16.61 20.3501 16.36 20.4601C16.25 20.5101 16.18 20.5001 16.08 20.4201C15.7 20.1301 15.4 19.7601 15.12 19.3801C15.03 19.2501 14.94 19.1301 14.86 18.9901C14.77 18.8301 14.67 18.6601 14.59 18.4901C14.53 18.3601 14.45 18.2401 14.39 18.1201C14.32 17.9801 14.26 17.8501 14.2 17.7101C13.85 16.9401 13.55 16.1601 13.26 15.3601C13.25 15.3201 13.22 15.2801 13.21 15.2401C13.2 15.1901 13.18 15.2001 13.15 15.2301C13 15.3401 12.96 15.5001 12.96 15.6801C12.96 15.8401 12.98 16.0001 13.02 16.1501C13.09 16.4401 13.16 16.7401 13.19 17.0401C13.2 17.1801 13.22 17.3201 13.23 17.4601C13.25 17.7001 13.26 17.9401 13.23 18.1701C13.22 18.3301 13.22 18.4901 13.18 18.6401C13.15 18.7801 13.14 18.9301 13.1 19.0701C13 19.4801 12.83 19.8501 12.56 20.1801C12.38 20.4001 12.16 20.5801 11.9 20.7101C11.57 20.8801 11.22 20.9901 10.84 21.0101C10.51 21.0301 10.22 20.9301 9.95001 20.7601C9.86001 20.7001 9.77 20.6301 9.69 20.5601C9.63 20.5101 9.55999 20.4701 9.49999 20.4101C9.40999 20.3301 9.31 20.2501 9.22 20.1701C8.99 19.9701 8.75 19.7801 8.47 19.6701C8.32 19.6101 8.17 19.5701 8.02 19.5201C7.67 19.4201 7.32 19.3201 7.01 19.1201C6.85 19.0201 6.7 18.9101 6.6 18.7501C6.56 18.6901 6.51 18.6301 6.47 18.5701C6.42 18.5001 6.4 18.4101 6.37 18.3201C6.33 18.2101 6.28 18.1101 6.26 18.0001C6.25 17.9201 6.24001 17.8401 6.23001 17.7601C6.21001 17.5901 6.19001 17.4201 6.23001 17.2501C6.26001 17.1201 6.27001 16.9801 6.31001 16.8501C6.41001 16.5001 6.57999 16.1901 6.77999 15.8901C6.85999 15.7701 6.96 15.6601 7.05 15.5601C7.21 15.3801 7.39001 15.2201 7.59001 15.0801C7.80001 14.9401 8.00999 14.8001 8.24999 14.7001C8.65999 14.5301 9.08 14.4001 9.49 14.2501C9.73 14.1601 9.99001 14.0901 10.23 14.0001C10.49 13.9101 10.73 13.7901 10.91 13.5801C10.95 13.5401 10.94 13.5201 10.9 13.4901C10.76 13.4101 10.62 13.3801 10.46 13.3901C10.23 13.4101 10.03 13.4901 9.83 13.5801C9.51 13.7201 9.18 13.8101 8.85 13.9001C8.64 13.9601 8.43 14.0101 8.21 14.0501C8.07 14.0801 7.91999 14.1001 7.77999 14.1301C7.62999 14.1601 7.48 14.1601 7.33 14.1801C7.2 14.1901 7.07 14.1801 6.94 14.1801C6.72 14.1801 6.51 14.1501 6.3 14.1001C6.06 14.0501 5.84 13.9601 5.63 13.8401C5.43 13.7401 5.25 13.6101 5.1 13.4601C4.89 13.2501 4.72001 13.0201 4.59001 12.7501C4.48001 12.5301 4.41 12.3001 4.36 12.0501C4.33 11.8901 4.33 11.7301 4.35 11.5801C4.39 11.3201 4.47 11.0701 4.62 10.8501C4.72 10.7201 4.82 10.6001 4.93 10.4701C5.14 10.2301 5.36 9.99006 5.49 9.69006C5.57 9.50006 5.63 9.31006 5.69 9.11006C5.8 8.73006 5.87 8.35006 6.04 7.99006C6.13 7.80006 6.25 7.62006 6.4 7.49006C6.51 7.39006 6.63 7.30006 6.76 7.23006C6.88 7.17006 7.00999 7.13006 7.13999 7.08006C7.27999 7.01006 7.43001 6.97006 7.59001 6.95006C7.75001 6.93006 7.9 6.91006 8.07 6.94006C8.17 6.96006 8.28 6.96006 8.38 6.97006C8.49 6.98006 8.59001 7.01006 8.70001 7.04006C8.76001 7.06006 8.82 7.07006 8.87001 7.09006C9.00001 7.12006 9.12999 7.17006 9.24999 7.22006C9.45999 7.32006 9.67 7.43006 9.86 7.57006C10.08 7.73006 10.27 7.92006 10.43 8.14006C10.61 8.38006 10.74 8.65006 10.87 8.92006C11.09 9.39006 11.26 9.88006 11.5 10.3301C11.65 10.6101 11.83 10.8701 12.05 11.1001C12.08 11.1301 12.09 11.1301 12.11 11.0901C12.16 10.9801 12.17 10.8501 12.17 10.7301C12.18 10.4501 12.1 10.1801 12.02 9.92006C11.94 9.65006 11.86 9.39006 11.77 9.13006C11.69 8.90006 11.62 8.66006 11.55 8.42006C11.5 8.25006 11.46 8.08006 11.43 7.91006C11.4 7.73006 11.39 7.55006 11.4 7.38006C11.4 7.14006 11.47 6.91006 11.53 6.69006C11.57 6.56006 11.63 6.44006 11.68 6.31006C11.76 6.11006 11.88 5.94006 12 5.77006C12.14 5.57006 12.31 5.40006 12.5 5.24006C12.57 5.18006 12.64 5.11006 12.72 5.06006C12.77 5.03006 12.82 5.01006 12.87 4.97006C13.02 4.88006 13.18 4.79006 13.35 4.73006C13.64 4.63006 13.94 4.58006 14.25 4.64006C14.39 4.67006 14.52 4.70006 14.64 4.75006C14.77 4.80006 14.89 4.87006 15.01 4.95006C15.12 5.02006 15.23 5.10006 15.33 5.18006C15.46 5.28006 15.59 5.37006 15.72 5.47006C15.89 5.60006 16.08 5.69006 16.28 5.77006C16.48 5.85006 16.68 5.88006 16.89 5.91006C17.16 5.95006 17.43 5.96006 17.7 6.03006C17.86 6.07006 17.99 6.15006 18.13 6.24006C18.23 6.30006 18.32 6.38006 18.41 6.46006C18.73 6.74006 18.91 7.10006 18.96 7.52006C19 7.86006 18.96 8.20006 18.86 8.53006C18.76 8.82006 18.65 9.10006 18.48 9.36006C18.41 9.48006 18.33 9.59006 18.25 9.70006C18.1 9.90006 17.93 10.0901 17.74 10.2501C17.57 10.3901 17.39 10.5201 17.2 10.6301C16.95 10.7701 16.69 10.9001 16.44 11.0301C16.24 11.1301 16.04 11.2201 15.84 11.3201C15.62 11.4201 15.38 11.4901 15.15 11.5801C15.02 11.6301 14.9 11.6901 14.79 11.7601C14.65 11.8501 14.55 11.9601 14.47 12.1001C14.44 12.1501 14.46 12.1701 14.51 12.1901C14.67 12.2601 14.84 12.2401 15 12.2001C15.28 12.1301 15.53 11.9901 15.79 11.8801C16 11.7901 16.22 11.7101 16.43 11.6301C16.62 11.5501 16.81 11.4601 17.01 11.4001C17.11 11.3701 17.21 11.3301 17.3 11.3001C17.47 11.2401 17.65 11.1901 17.83 11.1501C17.95 11.1301 18.08 11.1201 18.21 11.1101C18.33 11.1101 18.46 11.1101 18.58 11.1101C18.7 11.1101 18.82 11.1201 18.94 11.1501C19.01 11.1701 19.08 11.1701 19.14 11.1901C19.32 11.2301 19.5 11.2701 19.68 11.3401C19.87 11.4201 20.07 11.4901 20.25 11.6001C20.57 11.8001 20.86 12.0301 21.06 12.3601C21.14 12.4901 21.22 12.6401 21.25 12.7901C21.27 12.8901 21.3 12.9901 21.31 13.1001C21.35 13.3901 21.31 13.6601 21.22 13.9301C21.14 14.1701 20.98 14.3701 20.83 14.5701C20.67 14.7701 20.5 14.9801 20.41 15.2301C20.36 15.3801 20.33 15.5301 20.32 15.6801C20.32 15.9001 20.34 16.1301 20.32 16.3501C20.28 16.7101 20.13 17.0201 19.9 17.2901C19.8 17.4001 19.7 17.5001 19.58 17.5901C19.42 17.7201 19.24 17.8301 19.05 17.9101C18.94 17.9601 18.83 18.0101 18.71 18.0401C18.59 18.0701 18.46 18.1101 18.34 18.1201C18.11 18.1401 17.87 18.1501 17.63 18.1201C17.46 18.0901 17.29 18.0301 17.13 17.9701C16.97 17.9101 16.81 17.8301 16.66 17.7401C16.41 17.5901 16.19 17.4101 15.98 17.2001C15.79 17.0101 15.62 16.8101 15.45 16.5901C15.35 16.4601 15.25 16.3101 15.15 16.1701C15.02 15.9801 14.89 15.8001 14.78 15.6001C14.67 15.4101 14.58 15.2201 14.44 15.0501C14.36 14.9501 14.25 14.8801 14.13 14.8301C14.1 14.8201 14.08 14.8301 14.07 14.8601C14.04 14.9901 14.04 15.1201 14.05 15.2501C14.05 15.3401 14.07 15.4401 14.1 15.5301C14.18 15.8001 14.28 16.0701 14.4 16.3301C14.56 16.6601 14.74 16.9801 14.93 17.3001C15.11 17.6001 15.31 17.8901 15.54 18.1601C15.59 18.2201 15.62 18.2901 15.67 18.3301C15.78 18.4301 15.87 18.5401 15.96 18.6401C16.42 19.1201 16.93 19.5501 17.53 19.8501C17.55 19.8501 17.57 19.8701 17.59 19.8901L17.58 19.9501Z" fill="#7EA39F"/>
</svg>
