<svg width="21" height="22" viewBox="0 0 21 22" fill="none" xmlns="http://www.w3.org/2000/svg">
<g clip-path="url(#clip0_16_1413)">
<path d="M10.9234 12.0993C7.5885 12.0993 4.87006 9.38828 4.87006 6.04594C4.87006 2.70359 7.58107 0 10.9234 0C14.2658 0 16.9768 2.71102 16.9768 6.05336C16.9768 9.39571 14.2658 12.1067 10.9234 12.1067V12.0993ZM10.9234 1.40379C8.36095 1.40379 6.28127 3.4909 6.28127 6.04594C6.28127 8.60098 8.36838 10.6881 10.9234 10.6881C13.4785 10.6881 15.5656 8.60098 15.5656 6.04594C15.5656 3.4909 13.4785 1.40379 10.9234 1.40379Z" fill="#DBEF60"/>
<path d="M20.178 21.3613H1.66142C1.27519 21.3613 0.955811 21.0494 0.955811 20.6557C0.955811 15.1594 5.42713 10.6881 10.9234 10.6881C16.4197 10.6881 20.8911 15.1594 20.8911 20.6557C20.8911 21.042 20.5791 21.3613 20.1854 21.3613H20.178ZM2.38931 19.9576H19.4501C19.0936 15.5679 15.4022 12.0993 10.916 12.0993C6.42983 12.0993 2.74582 15.5679 2.38931 19.9576Z" fill="#DBEF60"/>
</g>
<defs>
<clipPath id="clip0_16_1413">
<rect width="19.9278" height="21.3613" fill="white" transform="translate(0.955811)"/>
</clipPath>
</defs>
</svg>
