<svg width="218" height="54" viewBox="0 0 218 54" fill="none" xmlns="http://www.w3.org/2000/svg">
<g clip-path="url(#clip0_1_19)">
<path d="M65.74 21.3C64.85 21.29 63.96 21.31 63.08 21.28C63.97 21.32 64.86 21.29 65.74 21.31V21.3Z" fill="white"/>
<path d="M190.75 37.97C190.02 35.3 188.81 32.86 187.13 30.67C184.95 27.84 182.23 25.68 178.98 24.17C178.29 23.85 178.3 23.83 178.83 23.31C182.43 19.77 186.04 16.23 189.64 12.68C189.79 12.54 190.11 12.43 190.02 12.22C189.97 12.1 189.61 12.08 189.39 12.08C186.61 12.07 183.83 12.07 181.04 12.07C180.73 12.07 180.46 12.15 180.23 12.37C177.99 14.56 175.75 16.75 173.5 18.94C173.47 18.97 173.42 19 173.39 19.03C173.37 18.97 173.34 18.92 173.33 18.86C173.31 18.36 173.28 17.86 173.28 17.36C173.28 14.65 173.28 11.94 173.28 9.23C173.28 9.23 173.27 9.23 173.26 9.23C173.26 6.35 173.26 3.48 173.26 0.600004C173.26 0.250004 173.14 0.170004 172.81 0.170004C171.03 0.170004 169.26 0.170004 167.48 0.160004C166.56 0.160004 166.54 0.160004 166.54 1.08C166.54 12.9 166.54 24.72 166.54 36.54C166.54 37.73 166.48 38.93 166.59 40.12C166.61 40.3 166.38 40.54 166.8 40.56C168.86 40.63 170.92 40.61 172.98 40.57C173.21 40.57 173.28 40.47 173.28 40.23C173.28 37.93 173.28 35.63 173.28 33.34C173.28 32.13 173.28 30.93 173.3 29.72C173.3 29.6 173.24 29.31 173.46 29.4C173.93 29.59 174.44 29.6 174.91 29.78C177.47 30.8 179.72 32.26 181.44 34.45C182.83 36.21 183.85 38.13 184.32 40.33C184.37 40.54 184.49 40.56 184.65 40.56C186.75 40.62 188.85 40.62 190.95 40.57C191.26 40.57 191.34 40.48 191.28 40.16C191.14 39.42 190.96 38.68 190.76 37.95L190.75 37.97Z" fill="white"/>
<path d="M93.18 14.67C91.21 12.38 88.64 11.15 85.64 10.8C82.43 10.43 79.44 11.03 76.78 12.94C74.39 14.65 72.93 17.04 71.93 19.73C71.13 21.88 70.87 24.13 70.94 26.04C70.94 27.73 70.96 29.02 71.2 30.32C71.6 32.5 72.34 34.53 73.53 36.41C75.52 39.55 78.4 41.34 82.05 41.82C86.26 42.38 90.01 41.28 92.94 38.14C95.28 35.62 96.48 32.5 96.85 29.1C97.09 26.92 97.05 24.72 96.71 22.54C96.25 19.59 95.13 16.93 93.19 14.67H93.18ZM88.98 32C87.8 34.28 85.96 35.27 83.39 35.08C80.82 34.89 79.21 33.46 78.41 31.13C77.27 27.84 77.3 24.52 78.62 21.27C79.69 18.63 81.68 17.3 84.36 17.48C86.53 17.63 88.19 18.68 89.14 20.71C89.89 22.31 90.15 24.01 90.19 25.75C90.23 27.91 90 30.03 88.98 31.98V32Z" fill="white"/>
<path d="M63.3499 24.87C60.9099 23.58 58.2499 22.83 55.7099 21.79C54.7399 21.39 53.7699 20.95 53.0099 20.19C52.2499 19.44 52.3899 18.77 53.3799 18.19C53.6799 18.01 54.0199 17.89 54.3599 17.81C56.0399 17.43 57.7099 17.21 59.4299 17.74C60.9699 18.21 61.6399 18.92 61.7499 20.52C61.7499 20.65 61.7699 20.78 61.7699 20.9C61.7699 21.12 61.8399 21.19 62.0799 21.22C62.3799 21.25 67.1499 21.27 67.9099 21.32C68.4799 21.36 68.6299 21.25 68.5699 20.63C68.4599 19.48 68.3799 18.32 67.9999 17.23C66.9299 14.15 64.7099 12.25 61.6299 11.36C58.1799 10.35 54.7199 10.39 51.3299 11.69C49.7099 12.31 48.3399 13.28 47.2599 14.65C46.1599 16.06 45.7699 17.72 45.7099 19.45C45.6599 20.97 46.2099 22.35 47.0299 23.6C48.4999 25.82 50.7499 27.07 53.0999 28.1C54.6099 28.77 56.2099 29.23 57.7599 29.83C59.0499 30.33 60.3499 30.85 61.4699 31.68C61.8799 31.99 62.2799 32.31 62.3099 32.9C62.3599 33.91 61.6399 34.8 60.5299 34.96C58.7599 35.21 56.9899 35.12 55.3499 34.36C54.2099 33.84 53.1999 33.13 53.2599 31.65C53.2599 31.48 53.1599 31.44 53.0099 31.44C50.8899 31.32 48.7699 31.2 46.6499 31.08C46.4399 31.07 46.3899 31.14 46.3799 31.34C46.3099 33.36 46.8599 35.21 47.9799 36.86C49.8999 39.68 52.7799 40.98 56.0099 41.66C57.3499 41.94 58.7099 41.99 60.0799 41.9C62.2899 41.77 64.2699 41.09 66.0099 39.68C69.4699 36.88 70.1799 31.95 67.6299 28.33C66.5299 26.77 64.9999 25.76 63.3499 24.89V24.87Z" fill="white"/>
<path d="M163.63 31.89C162.63 31.89 161.62 31.89 160.62 31.89C160.1 31.89 159.59 31.89 159.07 31.89C158.54 31.89 158.01 31.91 157.49 31.94C157.36 31.94 157.14 31.9 157.15 32.13C157.21 33.32 156.62 34.13 155.47 34.43C154.64 34.65 153.8 34.65 152.99 34.43C150.76 33.87 149.46 32.29 148.71 30.25C147.77 27.69 147.8 25.08 148.69 22.51C149.48 20.23 150.79 18.45 153.38 17.95C155.25 17.59 156.55 18.38 156.86 20.23C156.91 20.51 157.1 20.49 157.28 20.5C159.25 20.66 160.84 20.64 162.67 20.76C163.7 20.83 163.7 20.81 163.66 19.8C163.49 15.8 160.52 12.23 156.6 11.39C154.73 10.99 152.86 11 150.99 11.54C149.62 11.93 148.35 12.48 147.21 13.32C143.98 15.7 142.26 19 141.54 22.85C140.71 27.29 141.35 31.5 143.68 35.45C146.1 39.55 151.72 42.21 156.26 41.26C158.64 40.76 160.65 39.68 162.18 37.77C163.49 36.13 163.92 34.2 163.96 32.15C163.96 31.89 163.81 31.9 163.63 31.9V31.89Z" fill="white"/>
<path d="M99.5 0H106.36V26.14C106.36 26.14 106.25 32.52 106.65 33.48C107.05 34.44 108.11 35.85 110.35 35.83C113.32 35.8 114.19 32.06 114.31 30.6C114.43 29.14 114.28 12.14 114.28 12.14H121.28L120.98 27.8C120.87 31.71 123.36 33.87 126.45 34C126.54 34 126.8 33.99 126.9 33.99C131.82 34.05 131.75 29.41 131.79 28.63C131.97 24.94 132.03 12.03 132.03 12.03H138.97V40.65H132.76V38.31C132.76 38.31 130.52 41.54 125.87 41.37C125.87 41.37 120.52 41.66 117.44 36.95C117.44 36.95 115.06 42.66 107.56 41.98C107.56 41.98 99.77 42.09 99.52 31.79V0H99.5Z" fill="white"/>
<path d="M192.57 12.1H199.32L199.35 29.23C199.35 30.29 199.68 31.33 200.32 32.17C201.1 33.19 202.48 34.17 204.87 34.02C204.87 34.02 208.45 34.02 210.02 30.58C210.43 29.69 210.61 28.71 210.61 27.73L210.59 12.08H217.25V38.61C217.25 38.61 218.55 52.92 209.02 53.85C208.82 53.87 205.05 54.49 200.92 51.33C200.45 50.97 199.82 50.41 199.03 49.91C197.05 48.65 194.43 49.21 193.16 51.18C193.14 51.21 193.13 51.23 193.11 51.26L192.57 52.24L186.76 49.6C186.76 49.6 189.29 43.38 195.31 43.02C195.31 43.02 198.13 42.33 202.16 45.13C202.16 45.13 204.04 46.64 206.25 47.17C207.88 47.56 209.69 47.05 210.34 45.51C210.87 44.24 211.2 42.25 210.47 39.36C210.47 39.36 195.01 46.27 192.78 30.85L192.58 12.1H192.57Z" fill="white"/>
<path d="M30.33 41.29C30.03 41.53 29.68 41.68 29.32 41.82C28.73 42.05 28.11 42.2 27.54 42.47C27.29 42.59 27.12 42.55 26.91 42.38C26.04 41.71 25.35 40.87 24.71 39.99C24.5 39.7 24.29 39.41 24.12 39.1C23.91 38.72 23.68 38.35 23.49 37.96C23.35 37.67 23.18 37.39 23.03 37.1C22.88 36.79 22.73 36.48 22.58 36.16C21.78 34.4 21.08 32.6 20.43 30.78C20.4 30.68 20.35 30.59 20.32 30.49C20.29 30.38 20.25 30.4 20.17 30.46C19.82 30.71 19.73 31.08 19.73 31.48C19.73 31.85 19.78 32.2 19.87 32.56C20.04 33.23 20.2 33.9 20.25 34.59C20.28 34.91 20.32 35.24 20.34 35.56C20.38 36.11 20.4 36.65 20.36 37.2C20.33 37.56 20.33 37.93 20.25 38.28C20.18 38.6 20.15 38.93 20.07 39.26C19.83 40.19 19.44 41.05 18.83 41.8C18.41 42.31 17.9 42.72 17.32 43.02C16.56 43.42 15.75 43.67 14.89 43.71C14.14 43.75 13.47 43.53 12.84 43.14C12.63 43.01 12.44 42.84 12.24 42.69C12.1 42.58 11.94 42.48 11.81 42.35C11.61 42.16 11.38 41.99 11.18 41.8C10.66 41.33 10.11 40.91 9.45997 40.65C9.11997 40.51 8.76997 40.42 8.41997 40.31C7.61997 40.08 6.81997 39.85 6.10997 39.4C5.74997 39.17 5.40997 38.92 5.17997 38.55C5.08997 38.41 4.97997 38.28 4.88997 38.14C4.76997 37.97 4.73997 37.76 4.66997 37.58C4.57997 37.34 4.45997 37.11 4.41997 36.85C4.38997 36.67 4.37997 36.48 4.35997 36.29C4.30997 35.9 4.26997 35.51 4.35997 35.12C4.42997 34.82 4.44997 34.51 4.53997 34.21C4.77997 33.42 5.15997 32.7 5.61997 32.02C5.80997 31.75 6.02997 31.5 6.24997 31.25C6.61997 30.84 7.02997 30.46 7.47997 30.15C7.95997 29.82 8.44997 29.51 8.98997 29.29C9.92997 28.91 10.89 28.61 11.84 28.27C12.4 28.07 12.98 27.91 13.54 27.71C14.13 27.5 14.69 27.24 15.1 26.74C15.18 26.64 15.18 26.6 15.07 26.53C14.75 26.35 14.42 26.28 14.05 26.3C13.53 26.34 13.07 26.53 12.61 26.74C11.89 27.06 11.12 27.26 10.37 27.47C9.88997 27.6 9.39997 27.72 8.90997 27.82C8.57997 27.89 8.24997 27.94 7.91997 27.99C7.57997 28.05 7.22997 28.06 6.88997 28.1C6.58997 28.13 6.28997 28.1 5.98997 28.1C5.49997 28.1 5.00997 28.04 4.52997 27.93C3.98997 27.8 3.47997 27.6 2.98997 27.34C2.53997 27.1 2.12997 26.81 1.76997 26.46C1.28997 25.99 0.909972 25.44 0.599972 24.84C0.339972 24.33 0.189972 23.8 0.0799722 23.25C0.00997217 22.89 0.00997217 22.53 0.0599722 22.17C0.139972 21.58 0.319972 21 0.689972 20.5C0.909972 20.2 1.14997 19.92 1.39997 19.64C1.88997 19.09 2.36997 18.53 2.66997 17.84C2.85997 17.41 2.98997 16.96 3.11997 16.51C3.36997 15.65 3.52997 14.76 3.91997 13.95C4.12997 13.52 4.38997 13.11 4.74997 12.79C4.99997 12.57 5.26997 12.35 5.56997 12.19C5.83997 12.05 6.14997 11.97 6.43997 11.84C6.76997 11.69 7.11997 11.59 7.46997 11.55C7.82997 11.51 8.18997 11.47 8.55997 11.52C8.79997 11.56 9.03997 11.56 9.27997 11.59C9.52997 11.62 9.76997 11.68 10.01 11.75C10.14 11.79 10.28 11.83 10.41 11.86C10.71 11.93 11 12.04 11.27 12.17C11.76 12.39 12.23 12.65 12.67 12.97C13.18 13.34 13.61 13.78 13.98 14.28C14.39 14.83 14.7 15.44 14.98 16.06C15.48 17.13 15.88 18.25 16.43 19.3C16.77 19.94 17.2 20.53 17.7 21.06C17.77 21.13 17.79 21.13 17.83 21.03C17.94 20.77 17.96 20.49 17.97 20.21C18 19.57 17.81 18.96 17.62 18.35C17.43 17.74 17.25 17.13 17.04 16.53C16.86 15.99 16.7 15.45 16.53 14.91C16.41 14.53 16.32 14.13 16.25 13.73C16.18 13.33 16.17 12.92 16.18 12.5C16.2 11.95 16.33 11.43 16.48 10.91C16.56 10.61 16.7 10.33 16.82 10.05C17 9.59999 17.27 9.19999 17.56 8.80999C17.88 8.35999 18.26 7.95999 18.7 7.60999C18.87 7.46999 19.02 7.31999 19.19 7.18999C19.29 7.10999 19.42 7.05999 19.53 6.99999C19.88 6.77999 20.24 6.58999 20.63 6.44999C21.29 6.21999 21.97 6.10999 22.69 6.23999C23 6.29999 23.3 6.37999 23.59 6.49999C23.88 6.61999 24.16 6.77999 24.43 6.96999C24.68 7.13999 24.93 7.30999 25.17 7.48999C25.47 7.71999 25.77 7.92999 26.07 8.14999C26.46 8.43999 26.89 8.64999 27.34 8.83999C27.79 9.01999 28.26 9.09999 28.74 9.16999C29.36 9.24999 29.98 9.28999 30.59 9.43999C30.95 9.52999 31.26 9.71999 31.58 9.91999C31.81 10.07 32.02 10.23 32.23 10.42C32.95 11.07 33.37 11.89 33.49 12.84C33.59 13.62 33.51 14.41 33.26 15.16C33.04 15.82 32.77 16.47 32.39 17.06C32.22 17.32 32.05 17.59 31.86 17.84C31.51 18.3 31.14 18.74 30.69 19.1C30.3 19.42 29.89 19.72 29.45 19.97C28.88 20.3 28.28 20.58 27.7 20.89C27.25 21.12 26.79 21.33 26.33 21.55C25.82 21.79 25.27 21.93 24.75 22.15C24.46 22.27 24.18 22.4 23.92 22.57C23.61 22.77 23.38 23.04 23.2 23.36C23.14 23.47 23.17 23.52 23.28 23.57C23.66 23.74 24.03 23.69 24.41 23.59C25.04 23.43 25.62 23.12 26.22 22.87C26.7 22.67 27.2 22.49 27.68 22.29C28.12 22.11 28.56 21.91 29.01 21.75C29.23 21.67 29.46 21.59 29.68 21.51C30.08 21.37 30.48 21.25 30.89 21.18C31.17 21.13 31.46 21.11 31.75 21.09C32.03 21.08 32.32 21.09 32.6 21.09C32.88 21.1 33.16 21.12 33.44 21.18C33.59 21.22 33.75 21.23 33.91 21.26C34.33 21.34 34.74 21.44 35.14 21.6C35.59 21.78 36.04 21.94 36.45 22.2C37.19 22.65 37.84 23.19 38.31 23.94C38.5 24.25 38.68 24.57 38.75 24.93C38.8 25.16 38.85 25.4 38.88 25.64C38.96 26.3 38.88 26.92 38.67 27.54C38.49 28.1 38.13 28.56 37.77 29.01C37.4 29.48 37.02 29.94 36.81 30.51C36.69 30.85 36.62 31.19 36.61 31.55C36.61 32.06 36.66 32.57 36.61 33.08C36.52 33.9 36.18 34.61 35.65 35.24C35.43 35.5 35.19 35.73 34.92 35.93C34.54 36.22 34.14 36.48 33.7 36.66C33.44 36.77 33.19 36.9 32.92 36.96C32.64 37.02 32.36 37.12 32.07 37.15C31.53 37.2 30.99 37.23 30.45 37.15C30.05 37.09 29.68 36.95 29.31 36.81C28.93 36.67 28.58 36.49 28.23 36.29C27.66 35.94 27.14 35.52 26.66 35.05C26.22 34.62 25.83 34.15 25.45 33.66C25.21 33.35 25 33.02 24.77 32.7C24.47 32.27 24.18 31.84 23.92 31.39C23.67 30.96 23.45 30.52 23.13 30.14C22.94 29.91 22.7 29.75 22.43 29.63C22.35 29.6 22.31 29.62 22.29 29.71C22.23 30 22.21 30.3 22.24 30.59C22.26 30.8 22.3 31.02 22.36 31.23C22.54 31.86 22.78 32.47 23.06 33.06C23.42 33.82 23.83 34.56 24.27 35.28C24.69 35.97 25.15 36.62 25.66 37.25C25.76 37.38 25.84 37.55 25.95 37.64C26.2 37.86 26.4 38.12 26.63 38.36C27.69 39.46 28.85 40.45 30.23 41.14C30.28 41.16 30.33 41.18 30.36 41.23L30.33 41.29Z" fill="#76ED97"/>
</g>
<defs>
<clipPath id="clip0_1_19">
<rect width="217.3" height="53.9" fill="white"/>
</clipPath>
</defs>
</svg>
